<svg xmlns="http://www.w3.org/2000/svg" xmlns:xlink="http://www.w3.org/1999/xlink" width="400" zoomAndPan="magnify" viewBox="0 0 300 74.999997" height="100" preserveAspectRatio="xMidYMid meet" version="1.0"><defs><g/></defs><g fill="#ff3873" fill-opacity="0.302"><g transform="translate(13.70154, 46.369234)"><g><path d="M 21.824219 -8.1875 C 21.480469 -8.324219 21.035156 -8.152344 20.898438 -7.777344 C 18.671875 -2.328125 15.828125 0.890625 11.101562 0.890625 C 7.742188 0.890625 5.753906 -1.027344 5.753906 -4.695312 C 5.753906 -6.679688 6.40625 -8.941406 7.195312 -11.476562 C 7.777344 -11.410156 8.1875 -11.375 8.703125 -11.375 C 14.527344 -11.375 21.242188 -14.699219 21.242188 -20.453125 C 21.242188 -23.160156 19.800781 -25.179688 16.992188 -25.25 C 12.128906 -25.351562 8.1875 -18.570312 6.269531 -13.085938 C 3.425781 -13.703125 1.4375 -15.417969 1.4375 -18.464844 C 1.4375 -20.351562 2.328125 -22.75 3.5625 -24.117188 C 3.699219 -24.257812 3.734375 -24.425781 3.734375 -24.597656 C 3.734375 -25.042969 3.390625 -25.316406 3.015625 -25.316406 C 2.808594 -25.316406 2.605469 -25.25 2.464844 -25.078125 C 0.960938 -23.226562 0 -20.726562 0 -18.398438 C 0 -14.902344 2.261719 -12.539062 5.753906 -11.71875 C 4.933594 -9.148438 4.316406 -6.785156 4.316406 -4.695312 C 4.316406 -0.445312 6.644531 2.328125 11.101562 2.328125 C 16.445312 2.328125 19.769531 -1.269531 22.234375 -7.230469 C 22.371094 -7.605469 22.199219 -8.015625 21.824219 -8.1875 Z M 7.707031 -12.847656 C 9.320312 -17.371094 12.949219 -23.8125 16.992188 -23.8125 C 18.878906 -23.8125 19.800781 -22.40625 19.800781 -20.453125 C 19.800781 -15.589844 13.667969 -12.8125 8.597656 -12.8125 C 8.289062 -12.8125 7.984375 -12.8125 7.707031 -12.847656 Z M 7.707031 -12.847656 "/></g></g></g><g fill="#ff3873" fill-opacity="0.302"><g transform="translate(34.014138, 46.369234)"><g><path d="M 15.3125 -7.230469 C 15.519531 -7.707031 15.144531 -8.222656 14.628906 -8.222656 C 14.355469 -8.222656 14.082031 -8.050781 13.976562 -7.777344 C 12.777344 -4.933594 11.578125 -3.632812 10.140625 -3.632812 C 9.351562 -3.632812 8.769531 -3.871094 8.394531 -4.351562 C 9.96875 -7.023438 11.066406 -10.378906 11.066406 -12.539062 C 11.066406 -14.59375 9.902344 -16.136719 7.640625 -16.203125 C 5.925781 -16.203125 4.25 -15.007812 2.808594 -12.609375 C 1.679688 -10.757812 -0.101562 -7.433594 -0.101562 -3.460938 C -0.101562 -1.472656 0.652344 0 2.878906 0 C 4.523438 0 6.269531 -1.40625 7.539062 -3.117188 C 8.289062 -2.5 9.183594 -2.191406 10.140625 -2.191406 C 12.195312 -2.191406 13.808594 -3.769531 15.3125 -7.230469 Z M 7.367188 -8.222656 C 7.023438 -8.222656 6.714844 -8.015625 6.644531 -7.675781 C 6.40625 -6.816406 6.339844 -5.308594 6.714844 -4.417969 C 5.585938 -2.808594 4.144531 -1.4375 2.878906 -1.4375 C 1.78125 -1.4375 1.371094 -2.296875 1.371094 -3.527344 C 1.371094 -7.058594 3.1875 -10.378906 4.078125 -11.855469 C 5.070312 -13.566406 6.304688 -14.765625 7.605469 -14.765625 C 8.769531 -14.765625 9.628906 -14.011719 9.628906 -12.574219 C 9.628906 -10.996094 8.976562 -8.632812 7.914062 -6.507812 C 7.949219 -6.75 7.949219 -7.023438 8.050781 -7.296875 C 8.1875 -7.777344 7.84375 -8.222656 7.367188 -8.222656 Z M 7.367188 -8.222656 "/></g></g></g><g fill="#ff3873" fill-opacity="0.302"><g transform="translate(47.407432, 46.369234)"><g><path d="M 15.210938 -8.152344 C 15.109375 -8.1875 15.007812 -8.222656 14.902344 -8.222656 C 14.628906 -8.222656 14.390625 -8.050781 14.253906 -7.777344 C 12.164062 -3.253906 10.929688 -1.4375 9.320312 -1.4375 C 8.597656 -1.4375 8.289062 -1.882812 8.289062 -2.878906 C 8.289062 -5.515625 10.964844 -10.003906 10.964844 -13.054688 C 10.964844 -14.867188 10.210938 -16.273438 7.742188 -16.273438 C 6.613281 -16.273438 5.550781 -15.621094 4.554688 -14.59375 L 4.832031 -15.28125 C 5.003906 -15.726562 4.660156 -16.238281 4.144531 -16.238281 C 3.835938 -16.238281 3.5625 -16.066406 3.460938 -15.757812 C 2.125 -12.09375 -0.0351562 -5.894531 -1.816406 -0.960938 C -1.953125 -0.546875 -1.746094 -0.171875 -1.371094 -0.0351562 C -0.992188 0.0703125 -0.582031 -0.101562 -0.445312 -0.515625 L 1.953125 -7.296875 C 3.050781 -10.210938 5.652344 -14.835938 7.742188 -14.835938 C 9.078125 -14.835938 9.523438 -14.046875 9.523438 -13.054688 C 9.523438 -10.074219 6.851562 -6.097656 6.851562 -2.878906 C 6.851562 -1.199219 7.675781 0 9.320312 0 C 11.648438 0 13.257812 -2.019531 15.589844 -7.195312 C 15.621094 -7.296875 15.65625 -7.398438 15.65625 -7.503906 C 15.65625 -7.777344 15.484375 -8.015625 15.210938 -8.152344 Z M 15.210938 -8.152344 "/></g></g></g><g fill="#ff3873" fill-opacity="0.302"><g transform="translate(61.074755, 46.369234)"><g><path d="M 20.007812 -7.503906 C 20.007812 -7.914062 19.632812 -8.222656 19.253906 -8.222656 C 18.980469 -8.222656 18.738281 -8.050781 18.601562 -7.777344 C 17.507812 -5.242188 16.410156 -3.632812 14.628906 -3.632812 C 14.011719 -3.632812 13.363281 -3.90625 13.019531 -4.351562 C 14.21875 -6.441406 17.097656 -12.164062 18.601562 -15.246094 C 18.636719 -15.347656 18.671875 -15.453125 18.671875 -15.589844 C 18.671875 -15.964844 18.363281 -16.308594 17.988281 -16.308594 C 17.710938 -16.308594 17.4375 -16.136719 17.300781 -15.898438 C 16.238281 -13.667969 13.566406 -8.429688 12.539062 -6.476562 C 12.574219 -6.714844 12.609375 -7.023438 12.710938 -7.296875 C 12.847656 -7.777344 12.46875 -8.222656 11.992188 -8.222656 C 11.648438 -8.222656 11.410156 -8.015625 11.304688 -7.675781 C 11.03125 -6.714844 10.964844 -5.449219 11.339844 -4.417969 C 9.796875 -2.226562 9.183594 -1.4375 8.085938 -1.4375 C 7.433594 -1.4375 7.058594 -1.78125 7.058594 -2.878906 C 7.058594 -4.589844 8.90625 -9.59375 11.066406 -15.3125 C 11.238281 -15.757812 10.894531 -16.273438 10.347656 -16.273438 C 10.074219 -16.273438 9.796875 -16.101562 9.695312 -15.828125 C 9.320312 -14.765625 7.398438 -9.351562 6.785156 -7.8125 C 4.933594 -3.1875 3.496094 -1.4375 1.851562 -1.4375 C 1.128906 -1.4375 0.820312 -1.851562 0.820312 -2.878906 C 0.820312 -4.214844 1.472656 -6.0625 4.832031 -15.3125 C 5.003906 -15.757812 4.726562 -16.273438 4.144531 -16.273438 C 3.871094 -16.273438 3.597656 -16.101562 3.496094 -15.828125 C 0.546875 -8.015625 -0.617188 -4.589844 -0.617188 -2.878906 C -0.617188 -1.199219 0.207031 0 1.851562 0 C 3.390625 0 4.625 -1.027344 5.617188 -2.433594 C 5.824219 -0.960938 6.507812 0 8.085938 0 C 9.695312 0 10.929688 -1.300781 12.230469 -3.117188 C 12.777344 -2.570312 13.601562 -2.191406 14.628906 -2.191406 C 17.0625 -2.191406 18.980469 -4.589844 19.9375 -7.230469 C 19.972656 -7.332031 20.007812 -7.398438 20.007812 -7.503906 Z M 20.007812 -7.503906 "/></g></g></g><g fill="#ff3873" fill-opacity="0.302"><g transform="translate(79.092332, 46.369234)"><g><path d="M 15.347656 -8.152344 C 15.246094 -8.1875 15.144531 -8.222656 15.039062 -8.222656 C 14.765625 -8.222656 14.527344 -8.050781 14.390625 -7.777344 L 14.355469 -7.675781 C 13.222656 -5.140625 11.578125 -1.4375 9.457031 -1.4375 C 8.734375 -1.4375 8.429688 -1.851562 8.429688 -2.878906 C 8.429688 -4.386719 9.558594 -7.367188 10.792969 -10.824219 L 12.503906 -15.417969 C 12.675781 -15.828125 12.402344 -16.375 11.855469 -16.375 C 11.546875 -16.375 11.273438 -16.203125 11.167969 -15.929688 C 10.996094 -15.484375 10.792969 -14.972656 10.585938 -14.390625 C 9.96875 -15.621094 8.90625 -16.203125 7.46875 -16.203125 C 3.359375 -16.203125 -0.101562 -8.1875 -0.101562 -3.699219 C -0.101562 -1.644531 0.789062 0 2.707031 0 C 4.179688 0 5.617188 -0.960938 6.988281 -2.878906 C 6.988281 -1.199219 7.8125 0 9.457031 0 C 12.539062 0 14.390625 -4.214844 15.691406 -7.09375 L 15.726562 -7.195312 C 15.757812 -7.296875 15.792969 -7.398438 15.792969 -7.503906 C 15.792969 -7.777344 15.621094 -8.015625 15.347656 -8.152344 Z M 2.671875 -1.4375 C 1.644531 -1.4375 1.335938 -2.433594 1.335938 -3.941406 C 1.40625 -7.332031 4.316406 -14.699219 7.46875 -14.765625 C 8.703125 -14.765625 9.59375 -13.839844 9.660156 -12.265625 L 8.839844 -10.074219 C 7.46875 -6.578125 5.449219 -1.4375 2.671875 -1.4375 Z M 2.671875 -1.4375 "/></g></g></g><g fill="#ff3873" fill-opacity="0.302"><g transform="translate(92.896675, 46.369234)"><g><path d="M 15.65625 -8.121094 C 15.554688 -8.152344 15.453125 -8.1875 15.347656 -8.1875 C 15.074219 -8.1875 14.835938 -8.015625 14.699219 -7.742188 C 12.984375 -3.699219 10.585938 -0.546875 6.644531 0.789062 L 7.160156 -0.71875 L 9.902344 -8.53125 C 10.996094 -11.511719 11.921875 -13.875 12.46875 -15.28125 C 12.640625 -15.792969 12.164062 -16.273438 11.75 -16.273438 C 11.476562 -16.273438 11.203125 -16.066406 11.101562 -15.792969 C 8.804688 -9.730469 9.011719 -10.347656 8.566406 -9.011719 C 7.195312 -5.070312 5.003906 -1.4375 3.1875 -1.4375 C 1.234375 -1.4375 0.925781 -2.671875 0.925781 -3.664062 C 0.925781 -4.898438 1.507812 -5.960938 3.015625 -10.105469 L 4.898438 -15.3125 C 5.070312 -15.757812 4.796875 -16.273438 4.214844 -16.273438 C 3.941406 -16.273438 3.664062 -16.101562 3.5625 -15.828125 L 1.644531 -10.621094 C 0.308594 -7.125 -0.480469 -5.242188 -0.546875 -3.664062 C -0.546875 -1.953125 0.273438 0 3.1875 0 C 4.144531 0 5.003906 -0.410156 5.789062 -1.164062 L 4.933594 1.300781 C 4.007812 1.542969 3.082031 1.714844 2.226562 1.851562 C -1.882812 2.605469 -3.5625 4.179688 -3.5625 6.339844 C -3.5625 8.359375 -2.226562 9.695312 -0.171875 9.660156 C 2.296875 9.628906 4.417969 7.195312 6.0625 2.5 C 11.066406 1.027344 13.910156 -2.160156 16.035156 -7.160156 C 16.066406 -7.261719 16.101562 -7.367188 16.101562 -7.46875 C 16.101562 -7.742188 15.929688 -7.984375 15.65625 -8.121094 Z M -0.171875 8.222656 C -1.335938 8.257812 -2.125 7.503906 -2.125 6.304688 C -1.988281 4.726562 -0.652344 3.835938 2.5 3.289062 C 3.117188 3.1875 3.734375 3.050781 4.386719 2.910156 C 3.253906 6.371094 1.679688 8.1875 -0.171875 8.222656 Z M -0.171875 8.222656 "/></g></g></g><g fill="#ff3873" fill-opacity="0.302"><g transform="translate(107.009298, 46.369234)"><g><path d="M 7.160156 -21.34375 C 7.023438 -20.933594 7.195312 -20.589844 7.503906 -20.351562 C 7.878906 -20.214844 8.257812 -20.351562 8.429688 -20.726562 L 10.449219 -26.039062 C 10.621094 -26.449219 10.347656 -26.894531 10.003906 -27.066406 C 9.628906 -27.203125 9.183594 -27.03125 9.042969 -26.652344 Z M 7.160156 -21.34375 "/></g></g></g><g fill="#ff3873" fill-opacity="0.302"><g transform="translate(114.202631, 46.369234)"><g><path d="M 11.304688 -6.0625 C 11.273438 -8.394531 10.347656 -9.59375 8.566406 -12.882812 C 9.628906 -14.082031 10.484375 -15.589844 10.484375 -16.957031 C 10.414062 -17.953125 9.832031 -18.738281 8.839844 -18.738281 C 7.433594 -18.738281 6.339844 -17.234375 6.339844 -15.453125 C 6.339844 -14.664062 6.542969 -13.910156 6.851562 -13.191406 C 6.441406 -12.777344 6.097656 -12.402344 5.6875 -11.921875 C 5.585938 -11.785156 5.515625 -11.613281 5.515625 -11.476562 C 5.515625 -11.273438 5.585938 -11.03125 5.753906 -10.894531 C 5.894531 -10.757812 6.097656 -10.722656 6.269531 -10.722656 C 6.476562 -10.722656 6.679688 -10.824219 6.816406 -10.996094 C 7.023438 -11.273438 7.261719 -11.546875 7.503906 -11.785156 C 9.320312 -8.597656 9.832031 -7.605469 9.867188 -6.097656 C 9.796875 -3.253906 7.8125 -1.4375 5.035156 -1.4375 C 3.050781 -1.4375 1.300781 -2.910156 1.300781 -5.003906 C 1.4375 -7.09375 2.671875 -8.667969 4.554688 -8.667969 C 5.449219 -8.667969 6.304688 -7.8125 6.371094 -6.644531 C 6.371094 -6.234375 6.679688 -5.925781 7.09375 -5.925781 C 7.503906 -5.925781 7.8125 -6.234375 7.8125 -6.644531 C 7.742188 -8.53125 6.304688 -10.105469 4.523438 -10.105469 C 1.78125 -10.105469 0.0703125 -8.085938 -0.136719 -5.003906 C -0.136719 -2.226562 2.191406 0 5.035156 0 C 8.496094 0 11.238281 -2.363281 11.304688 -6.0625 Z M 7.949219 -14.390625 C 7.84375 -14.765625 7.777344 -15.109375 7.777344 -15.484375 C 7.777344 -15.964844 7.878906 -16.582031 8.289062 -16.992188 C 8.632812 -17.335938 9.011719 -17.4375 9.011719 -16.957031 C 9.011719 -16.203125 8.496094 -15.144531 7.949219 -14.390625 Z M 7.949219 -14.390625 "/></g></g></g><g fill="#ff3873" fill-opacity="0.302"><g transform="translate(127.3904, 46.369234)"><g/></g></g><g fill="#ff3873" fill-opacity="0.302"><g transform="translate(137.666587, 46.369234)"><g><path d="M 25.625 -8.121094 C 25.523438 -8.152344 25.421875 -8.1875 25.316406 -8.1875 C 25.042969 -8.1875 24.804688 -8.015625 24.667969 -7.742188 C 22.953125 -3.699219 20.554688 -0.546875 16.617188 0.789062 L 18.054688 -3.359375 C 18.707031 -5.242188 19.324219 -6.886719 19.871094 -8.460938 L 22.40625 -15.210938 C 22.578125 -15.65625 22.304688 -16.171875 21.722656 -16.171875 C 21.414062 -16.171875 21.171875 -16.066406 21.035156 -15.65625 L 20.691406 -14.730469 C 19.425781 -11.410156 17.882812 -8.085938 16.035156 -5.449219 C 14.113281 -2.636719 11.886719 -0.683594 9.351562 -0.683594 C 7.058594 -0.789062 5.753906 -1.917969 5.753906 -4.695312 C 5.753906 -6.40625 6.40625 -9.183594 7.195312 -11.476562 C 7.777344 -11.410156 8.1875 -11.375 8.703125 -11.375 C 14.800781 -11.375 21 -14.699219 21.242188 -20.453125 C 21.242188 -23.398438 19.324219 -25.351562 16.410156 -25.351562 C 12.503906 -25.351562 8.839844 -20.453125 6.269531 -13.085938 C 3.425781 -13.703125 1.4375 -15.417969 1.4375 -18.464844 C 1.4375 -19.597656 1.714844 -20.726562 2.160156 -21.789062 C 2.5 -22.644531 2.980469 -23.46875 3.5625 -24.117188 C 3.699219 -24.257812 3.734375 -24.425781 3.734375 -24.597656 C 3.734375 -24.804688 3.664062 -25.011719 3.496094 -25.148438 C 3.359375 -25.25 3.1875 -25.316406 3.015625 -25.316406 C 2.808594 -25.316406 2.605469 -25.25 2.464844 -25.078125 C 1.816406 -24.289062 1.234375 -23.367188 0.820312 -22.335938 C 0.308594 -21.070312 0 -19.734375 0 -18.398438 C 0 -14.902344 2.261719 -12.539062 5.753906 -11.71875 C 5.035156 -9.523438 4.316406 -6.679688 4.316406 -4.695312 C 4.316406 -1.40625 5.925781 0.652344 9.351562 0.753906 C 12.195312 0.753906 14.628906 -1.097656 16.71875 -3.871094 L 14.902344 1.300781 C 13.976562 1.542969 13.054688 1.714844 12.195312 1.851562 C 8.085938 2.605469 6.40625 4.179688 6.40625 6.339844 C 6.40625 8.359375 7.742188 9.695312 9.796875 9.660156 C 12.265625 9.628906 14.390625 7.195312 16.035156 2.5 C 21.035156 1.027344 23.878906 -2.160156 26.003906 -7.160156 C 26.039062 -7.261719 26.070312 -7.367188 26.070312 -7.46875 C 26.070312 -7.742188 25.902344 -7.984375 25.625 -8.121094 Z M 7.707031 -12.847656 C 10.074219 -19.492188 13.15625 -23.914062 16.410156 -23.914062 C 18.433594 -23.914062 19.800781 -22.542969 19.800781 -20.453125 C 19.800781 -15.621094 12.984375 -12.195312 7.707031 -12.847656 Z M 14.355469 2.910156 C 13.222656 6.371094 11.648438 8.1875 9.796875 8.222656 C 8.632812 8.257812 7.84375 7.503906 7.84375 6.304688 C 7.984375 4.726562 9.320312 3.835938 12.46875 3.289062 C 13.085938 3.1875 13.703125 3.050781 14.355469 2.910156 Z M 14.355469 2.910156 "/></g></g></g><g fill="#ff3873" fill-opacity="0.302"><g transform="translate(161.747117, 46.369234)"><g><path d="M 15.347656 -8.152344 C 15.246094 -8.1875 15.144531 -8.222656 15.039062 -8.222656 C 14.765625 -8.222656 14.527344 -8.050781 14.390625 -7.777344 L 14.355469 -7.675781 C 13.222656 -5.140625 11.578125 -1.4375 9.457031 -1.4375 C 8.734375 -1.4375 8.429688 -1.851562 8.429688 -2.878906 C 8.429688 -4.386719 9.558594 -7.367188 10.792969 -10.824219 L 12.503906 -15.417969 C 12.675781 -15.828125 12.402344 -16.375 11.855469 -16.375 C 11.546875 -16.375 11.273438 -16.203125 11.167969 -15.929688 C 10.996094 -15.484375 10.792969 -14.972656 10.585938 -14.390625 C 9.96875 -15.621094 8.90625 -16.203125 7.46875 -16.203125 C 3.359375 -16.203125 -0.101562 -8.1875 -0.101562 -3.699219 C -0.101562 -1.644531 0.789062 0 2.707031 0 C 4.179688 0 5.617188 -0.960938 6.988281 -2.878906 C 6.988281 -1.199219 7.8125 0 9.457031 0 C 12.539062 0 14.390625 -4.214844 15.691406 -7.09375 L 15.726562 -7.195312 C 15.757812 -7.296875 15.792969 -7.398438 15.792969 -7.503906 C 15.792969 -7.777344 15.621094 -8.015625 15.347656 -8.152344 Z M 2.671875 -1.4375 C 1.644531 -1.4375 1.335938 -2.433594 1.335938 -3.941406 C 1.40625 -7.332031 4.316406 -14.699219 7.46875 -14.765625 C 8.703125 -14.765625 9.59375 -13.839844 9.660156 -12.265625 L 8.839844 -10.074219 C 7.46875 -6.578125 5.449219 -1.4375 2.671875 -1.4375 Z M 2.671875 -1.4375 "/></g></g></g><g fill="#ff3873" fill-opacity="0.302"><g transform="translate(175.55146, 46.369234)"><g><path d="M 23.125 -7.503906 C 23.125 -7.878906 22.75 -8.222656 22.40625 -8.222656 C 22.132812 -8.222656 21.824219 -8.050781 21.722656 -7.777344 C 19.871094 -3.460938 18.5 -1.4375 16.820312 -1.4375 C 16.101562 -1.4375 15.792969 -1.882812 15.792969 -2.878906 C 15.792969 -5.824219 18.433594 -9.765625 18.433594 -13.054688 C 18.433594 -14.867188 17.679688 -16.273438 15.210938 -16.273438 C 13.601562 -16.273438 11.855469 -14.699219 10.859375 -13.121094 C 10.859375 -14.9375 9.765625 -16.273438 7.707031 -16.273438 C 6.542969 -16.273438 5.449219 -15.484375 4.453125 -14.320312 C 4.554688 -14.664062 4.660156 -14.9375 4.796875 -15.246094 C 4.96875 -15.691406 4.625 -16.203125 4.109375 -16.203125 C 3.804688 -16.203125 3.527344 -16.035156 3.425781 -15.726562 C 1.679688 -10.792969 -0.101562 -5.859375 -1.851562 -0.925781 C -1.988281 -0.546875 -1.78125 -0.136719 -1.40625 0 C -1.027344 0.101562 -0.617188 -0.0703125 -0.480469 -0.480469 L 1.851562 -7.09375 C 2.054688 -7.640625 4.109375 -11.410156 4.726562 -12.332031 C 5.722656 -13.738281 6.75 -14.835938 7.707031 -14.835938 C 8.941406 -14.835938 9.421875 -14.183594 9.421875 -12.917969 C 9.421875 -11.71875 8.90625 -10.175781 8.1875 -8.085938 C 8.152344 -8.015625 5.894531 -1.300781 5.859375 -1.199219 C 5.6875 -0.753906 6.03125 -0.238281 6.542969 -0.238281 C 6.851562 -0.238281 7.125 -0.410156 7.230469 -0.71875 C 7.195312 -0.652344 9.488281 -7.367188 9.558594 -7.570312 C 10.550781 -10.347656 13.222656 -14.835938 15.210938 -14.835938 C 16.582031 -14.835938 16.992188 -14.046875 16.992188 -13.054688 C 16.992188 -10.242188 14.320312 -5.996094 14.320312 -2.878906 C 14.320312 -1.199219 15.144531 0 16.820312 0 C 19.871094 0 21.753906 -4.214844 23.023438 -7.09375 C 23.089844 -7.332031 23.125 -7.398438 23.125 -7.503906 Z M 23.125 -7.503906 "/></g></g></g><g fill="#ff3873" fill-opacity="0.302"><g transform="translate(196.686144, 46.369234)"><g><path d="M 12.402344 -8.152344 C 12.023438 -8.289062 11.613281 -8.121094 11.441406 -7.777344 C 9.523438 -3.359375 7.332031 -1.371094 4.523438 -1.4375 C 2.464844 -1.507812 1.371094 -2.707031 1.4375 -4.660156 C 1.472656 -5.378906 1.574219 -6.03125 1.816406 -6.921875 C 5.617188 -7.84375 10.722656 -10.039062 10.722656 -13.667969 C 10.722656 -15.3125 9.523438 -16.203125 7.8125 -16.203125 C 3.769531 -16.203125 0.207031 -9.078125 0 -4.695312 C -0.0703125 -1.882812 1.644531 0 4.488281 0 C 7.949219 0 10.550781 -2.261719 12.777344 -7.195312 C 12.8125 -7.296875 12.847656 -7.367188 12.847656 -7.46875 C 12.847656 -7.742188 12.675781 -8.015625 12.402344 -8.152344 Z M 2.363281 -8.566406 C 3.460938 -11.203125 5.449219 -14.765625 7.8125 -14.765625 C 8.566406 -14.765625 9.285156 -14.59375 9.285156 -13.667969 C 9.285156 -11.132812 5.207031 -9.457031 2.363281 -8.566406 Z M 2.363281 -8.566406 "/></g></g></g><g fill="#ff3873" fill-opacity="0.302"><g transform="translate(207.544664, 46.369234)"><g/></g></g><g fill="#ff3873" fill-opacity="0.302"><g transform="translate(217.820862, 46.369234)"><g><path d="M 15.3125 -7.230469 C 15.519531 -7.707031 15.144531 -8.222656 14.628906 -8.222656 C 14.355469 -8.222656 14.082031 -8.050781 13.976562 -7.777344 C 12.777344 -4.933594 11.578125 -3.632812 10.140625 -3.632812 C 9.351562 -3.632812 8.769531 -3.871094 8.394531 -4.351562 C 9.96875 -7.023438 11.066406 -10.378906 11.066406 -12.539062 C 11.066406 -14.59375 9.902344 -16.136719 7.640625 -16.203125 C 5.925781 -16.203125 4.25 -15.007812 2.808594 -12.609375 C 1.679688 -10.757812 -0.101562 -7.433594 -0.101562 -3.460938 C -0.101562 -1.472656 0.652344 0 2.878906 0 C 4.523438 0 6.269531 -1.40625 7.539062 -3.117188 C 8.289062 -2.5 9.183594 -2.191406 10.140625 -2.191406 C 12.195312 -2.191406 13.808594 -3.769531 15.3125 -7.230469 Z M 7.367188 -8.222656 C 7.023438 -8.222656 6.714844 -8.015625 6.644531 -7.675781 C 6.40625 -6.816406 6.339844 -5.308594 6.714844 -4.417969 C 5.585938 -2.808594 4.144531 -1.4375 2.878906 -1.4375 C 1.78125 -1.4375 1.371094 -2.296875 1.371094 -3.527344 C 1.371094 -7.058594 3.1875 -10.378906 4.078125 -11.855469 C 5.070312 -13.566406 6.304688 -14.765625 7.605469 -14.765625 C 8.769531 -14.765625 9.628906 -14.011719 9.628906 -12.574219 C 9.628906 -10.996094 8.976562 -8.632812 7.914062 -6.507812 C 7.949219 -6.75 7.949219 -7.023438 8.050781 -7.296875 C 8.1875 -7.777344 7.84375 -8.222656 7.367188 -8.222656 Z M 7.367188 -8.222656 "/></g></g></g><g fill="#ff3873" fill-opacity="0.302"><g transform="translate(231.214156, 46.369234)"><g><path d="M 13.394531 -24.90625 C 12.917969 -25.867188 12.023438 -26.378906 10.929688 -26.378906 C 8.152344 -26.378906 6.199219 -22.886719 4.863281 -19.355469 L 3.664062 -16.203125 L 0.890625 -16.203125 C 0.480469 -16.203125 0.171875 -15.863281 0.171875 -15.484375 C 0.171875 -15.074219 0.480469 -14.765625 0.890625 -14.765625 L 3.117188 -14.765625 C 1.027344 -9.25 -0.0703125 -5.6875 -2.605469 1.300781 C -3.527344 1.542969 -4.453125 1.714844 -5.308594 1.851562 C -9.421875 2.605469 -11.101562 4.179688 -11.101562 6.339844 C -11.101562 8.359375 -9.765625 9.695312 -7.707031 9.660156 C -5.242188 9.628906 -3.117188 7.195312 -1.472656 2.5 C 3.527344 1.027344 6.371094 -2.160156 8.496094 -7.160156 C 8.53125 -7.261719 8.566406 -7.367188 8.566406 -7.46875 C 8.566406 -7.742188 8.394531 -7.984375 8.121094 -8.121094 C 8.015625 -8.152344 7.914062 -8.1875 7.8125 -8.1875 C 7.539062 -8.1875 7.296875 -8.015625 7.160156 -7.742188 C 5.449219 -3.699219 3.050781 -0.546875 -0.890625 0.789062 C 2.570312 -9.078125 3.632812 -11.992188 4.660156 -14.765625 L 7.398438 -14.765625 C 7.777344 -14.765625 8.121094 -15.074219 8.121094 -15.484375 C 8.121094 -15.863281 7.777344 -16.203125 7.398438 -16.203125 L 5.207031 -16.203125 C 5.515625 -17.0625 5.894531 -17.988281 6.234375 -18.808594 C 7.332031 -21.722656 9.011719 -25.011719 10.996094 -24.90625 C 11.375 -24.90625 11.820312 -24.804688 12.128906 -24.289062 C 12.265625 -24.015625 12.503906 -23.878906 12.777344 -23.878906 C 12.882812 -23.878906 12.984375 -23.914062 13.085938 -23.949219 C 13.328125 -24.085938 13.5 -24.324219 13.5 -24.597656 C 13.5 -24.703125 13.464844 -24.804688 13.394531 -24.90625 Z M -3.152344 2.910156 C -4.28125 6.371094 -5.859375 8.1875 -7.707031 8.222656 C -8.875 8.257812 -9.660156 7.503906 -9.660156 6.304688 C -9.523438 4.726562 -8.1875 3.835938 -5.035156 3.289062 C -4.417969 3.1875 -3.804688 3.050781 -3.152344 2.910156 Z M -3.152344 2.910156 "/></g></g></g><g fill="#ff3873" fill-opacity="0.302"><g transform="translate(237.790915, 46.369234)"><g/></g></g><g fill="#ff3873" fill-opacity="0.302"><g transform="translate(248.067091, 46.369234)"><g><path d="M 14.835938 -22.441406 L 11.921875 -21.996094 C 6.785156 -21.207031 1.234375 -20.351562 0.582031 -15.589844 C 0.546875 -15.417969 0.546875 -15.210938 0.546875 -15.039062 C 0.515625 -13.945312 0.789062 -12.882812 1.40625 -12.09375 C 2.019531 -11.238281 2.945312 -10.65625 4.144531 -10.484375 C 4.28125 -10.449219 4.453125 -10.449219 4.625 -10.449219 C 5.035156 -10.449219 5.378906 -10.757812 5.378906 -11.132812 C 5.414062 -11.546875 5.105469 -11.886719 4.695312 -11.886719 L 4.351562 -11.921875 C 3.5625 -12.023438 2.980469 -12.402344 2.570312 -12.949219 C 2.160156 -13.5 1.953125 -14.21875 1.988281 -14.972656 C 1.988281 -15.109375 1.988281 -15.246094 2.019531 -15.382812 C 2.535156 -19.082031 7.570312 -19.871094 12.164062 -20.589844 C 12.847656 -20.691406 13.566406 -20.796875 14.253906 -20.933594 C 13.53125 -18.980469 12.847656 -16.789062 12.265625 -14.867188 C 10.964844 -10.65625 10.449219 -9.148438 9.796875 -7.46875 C 9.386719 -6.476562 8.941406 -5.515625 8.429688 -4.660156 C 6.851562 -5.996094 5.242188 -6.886719 3.769531 -6.886719 C 1.78125 -6.886719 0.136719 -5.515625 0 -3.117188 C 0 -1.097656 1.199219 0 3.5625 0.171875 C 5.378906 0.171875 7.195312 -0.71875 8.394531 -2.125 C 8.496094 -2.226562 8.597656 -2.363281 8.703125 -2.5 C 9.558594 -1.746094 10.414062 -0.855469 11.304688 0 C 14.285156 2.980469 17.679688 6.507812 21.308594 6.507812 C 23.367188 6.507812 25.625 5.652344 26.484375 3.734375 C 26.515625 3.632812 26.550781 3.527344 26.550781 3.460938 C 26.550781 3.1875 26.3125 2.707031 25.832031 2.707031 C 25.558594 2.707031 25.285156 2.878906 25.179688 3.152344 C 24.632812 4.351562 23.058594 5.035156 21.34375 5.035156 C 18.226562 5.035156 15.175781 1.816406 12.332031 -1.027344 C 11.375 -1.953125 10.449219 -2.878906 9.523438 -3.734375 C 10.140625 -4.695312 10.65625 -5.753906 11.132812 -6.921875 C 11.785156 -8.53125 12.539062 -10.824219 13.667969 -14.421875 C 14.320312 -16.648438 15.109375 -19.1875 15.929688 -21.242188 C 18.363281 -21.890625 20.832031 -23.195312 20.832031 -24.804688 C 20.832031 -25.902344 20.007812 -26.652344 18.808594 -26.652344 C 17.0625 -26.652344 15.589844 -24.425781 14.835938 -22.441406 Z M 16.617188 -22.953125 C 17.164062 -24.117188 18.054688 -25.285156 18.808594 -25.285156 C 19.082031 -25.285156 19.289062 -25.078125 19.289062 -24.804688 C 19.289062 -24.257812 18.054688 -23.261719 16.617188 -22.953125 Z M 7.296875 -3.050781 C 6.371094 -1.988281 4.933594 -1.269531 3.5625 -1.269531 C 2.398438 -1.269531 1.4375 -1.78125 1.4375 -3.117188 C 1.507812 -4.554688 2.535156 -5.449219 3.734375 -5.449219 C 4.898438 -5.449219 6.199219 -4.625 7.640625 -3.460938 C 7.503906 -3.324219 7.398438 -3.1875 7.296875 -3.050781 Z M 7.296875 -3.050781 "/></g></g></g><g fill="#ff3873" fill-opacity="0.302"><g transform="translate(265.468105, 46.369234)"><g><path d="M 5.585938 -17.953125 C 6.234375 -17.953125 6.75 -18.464844 6.75 -19.117188 C 6.75 -19.769531 6.234375 -20.28125 5.585938 -20.28125 C 4.933594 -20.28125 4.386719 -19.769531 4.386719 -19.117188 C 4.386719 -18.464844 4.933594 -17.953125 5.585938 -17.953125 Z M 7.84375 -8.152344 C 7.742188 -8.1875 7.675781 -8.222656 7.570312 -8.222656 C 7.296875 -8.222656 7.023438 -8.050781 6.886719 -7.777344 C 5.617188 -4.96875 4.042969 -1.4375 1.917969 -1.4375 C 1.199219 -1.4375 0.890625 -1.882812 0.890625 -2.878906 C 0.890625 -4.351562 1.507812 -5.925781 4.832031 -15.28125 C 5.035156 -15.863281 4.589844 -16.203125 4.144531 -16.203125 C 3.871094 -16.203125 3.597656 -16.035156 3.496094 -15.726562 C 1.988281 -11.820312 -0.445312 -5.550781 -0.546875 -2.878906 C -0.617188 -1.300781 0.273438 0 1.917969 0 C 4.796875 0 6.578125 -3.496094 8.222656 -7.195312 C 8.257812 -7.296875 8.289062 -7.398438 8.289062 -7.503906 C 8.289062 -7.777344 8.121094 -8.050781 7.84375 -8.152344 Z M 7.84375 -8.152344 "/></g></g></g><g fill="#ff3873" fill-opacity="0.302"><g transform="translate(271.770824, 46.369234)"><g><path d="M 13.394531 -24.90625 C 12.917969 -25.867188 12.023438 -26.378906 10.929688 -26.378906 C 8.152344 -26.378906 6.199219 -22.886719 4.863281 -19.355469 L 3.664062 -16.203125 L 0.890625 -16.203125 C 0.480469 -16.203125 0.171875 -15.863281 0.171875 -15.484375 C 0.171875 -15.074219 0.480469 -14.765625 0.890625 -14.765625 L 3.117188 -14.765625 C 1.027344 -9.25 -0.0703125 -5.6875 -2.605469 1.300781 C -3.527344 1.542969 -4.453125 1.714844 -5.308594 1.851562 C -9.421875 2.605469 -11.101562 4.179688 -11.101562 6.339844 C -11.101562 8.359375 -9.765625 9.695312 -7.707031 9.660156 C -5.242188 9.628906 -3.117188 7.195312 -1.472656 2.5 C 3.527344 1.027344 6.371094 -2.160156 8.496094 -7.160156 C 8.53125 -7.261719 8.566406 -7.367188 8.566406 -7.46875 C 8.566406 -7.742188 8.394531 -7.984375 8.121094 -8.121094 C 8.015625 -8.152344 7.914062 -8.1875 7.8125 -8.1875 C 7.539062 -8.1875 7.296875 -8.015625 7.160156 -7.742188 C 5.449219 -3.699219 3.050781 -0.546875 -0.890625 0.789062 C 2.570312 -9.078125 3.632812 -11.992188 4.660156 -14.765625 L 7.398438 -14.765625 C 7.777344 -14.765625 8.121094 -15.074219 8.121094 -15.484375 C 8.121094 -15.863281 7.777344 -16.203125 7.398438 -16.203125 L 5.207031 -16.203125 C 5.515625 -17.0625 5.894531 -17.988281 6.234375 -18.808594 C 7.332031 -21.722656 9.011719 -25.011719 10.996094 -24.90625 C 11.375 -24.90625 11.820312 -24.804688 12.128906 -24.289062 C 12.265625 -24.015625 12.503906 -23.878906 12.777344 -23.878906 C 12.882812 -23.878906 12.984375 -23.914062 13.085938 -23.949219 C 13.328125 -24.085938 13.5 -24.324219 13.5 -24.597656 C 13.5 -24.703125 13.464844 -24.804688 13.394531 -24.90625 Z M -3.152344 2.910156 C -4.28125 6.371094 -5.859375 8.1875 -7.707031 8.222656 C -8.875 8.257812 -9.660156 7.503906 -9.660156 6.304688 C -9.523438 4.726562 -8.1875 3.835938 -5.035156 3.289062 C -4.417969 3.1875 -3.804688 3.050781 -3.152344 2.910156 Z M -3.152344 2.910156 "/></g></g></g><g fill="#ff3873" fill-opacity="0.302"><g transform="translate(278.347583, 46.369234)"><g><path d="M 12.402344 -8.152344 C 12.023438 -8.289062 11.613281 -8.121094 11.441406 -7.777344 C 9.523438 -3.359375 7.332031 -1.371094 4.523438 -1.4375 C 2.464844 -1.507812 1.371094 -2.707031 1.4375 -4.660156 C 1.472656 -5.378906 1.574219 -6.03125 1.816406 -6.921875 C 5.617188 -7.84375 10.722656 -10.039062 10.722656 -13.667969 C 10.722656 -15.3125 9.523438 -16.203125 7.8125 -16.203125 C 3.769531 -16.203125 0.207031 -9.078125 0 -4.695312 C -0.0703125 -1.882812 1.644531 0 4.488281 0 C 7.949219 0 10.550781 -2.261719 12.777344 -7.195312 C 12.8125 -7.296875 12.847656 -7.367188 12.847656 -7.46875 C 12.847656 -7.742188 12.675781 -8.015625 12.402344 -8.152344 Z M 2.363281 -8.566406 C 3.460938 -11.203125 5.449219 -14.765625 7.8125 -14.765625 C 8.566406 -14.765625 9.285156 -14.59375 9.285156 -13.667969 C 9.285156 -11.132812 5.207031 -9.457031 2.363281 -8.566406 Z M 2.363281 -8.566406 "/></g></g></g><g fill="#ff3873" fill-opacity="0.502"><g transform="translate(12.976501, 45.99981)"><g><path d="M 21.824219 -8.1875 C 21.480469 -8.324219 21.035156 -8.152344 20.898438 -7.777344 C 18.671875 -2.328125 15.828125 0.890625 11.101562 0.890625 C 7.742188 0.890625 5.753906 -1.027344 5.753906 -4.695312 C 5.753906 -6.679688 6.40625 -8.941406 7.195312 -11.476562 C 7.777344 -11.410156 8.1875 -11.375 8.703125 -11.375 C 14.527344 -11.375 21.242188 -14.699219 21.242188 -20.453125 C 21.242188 -23.160156 19.800781 -25.179688 16.992188 -25.25 C 12.128906 -25.351562 8.1875 -18.570312 6.269531 -13.085938 C 3.425781 -13.703125 1.4375 -15.417969 1.4375 -18.464844 C 1.4375 -20.351562 2.328125 -22.75 3.5625 -24.117188 C 3.699219 -24.257812 3.734375 -24.425781 3.734375 -24.597656 C 3.734375 -25.042969 3.390625 -25.316406 3.015625 -25.316406 C 2.808594 -25.316406 2.605469 -25.25 2.464844 -25.078125 C 0.960938 -23.226562 0 -20.726562 0 -18.398438 C 0 -14.902344 2.261719 -12.539062 5.753906 -11.71875 C 4.933594 -9.148438 4.316406 -6.785156 4.316406 -4.695312 C 4.316406 -0.445312 6.644531 2.328125 11.101562 2.328125 C 16.445312 2.328125 19.769531 -1.269531 22.234375 -7.230469 C 22.371094 -7.605469 22.199219 -8.015625 21.824219 -8.1875 Z M 7.707031 -12.847656 C 9.320312 -17.371094 12.949219 -23.8125 16.992188 -23.8125 C 18.878906 -23.8125 19.800781 -22.40625 19.800781 -20.453125 C 19.800781 -15.589844 13.667969 -12.8125 8.597656 -12.8125 C 8.289062 -12.8125 7.984375 -12.8125 7.707031 -12.847656 Z M 7.707031 -12.847656 "/></g></g></g><g fill="#ff3873" fill-opacity="0.502"><g transform="translate(33.289099, 45.99981)"><g><path d="M 15.3125 -7.230469 C 15.519531 -7.707031 15.144531 -8.222656 14.628906 -8.222656 C 14.355469 -8.222656 14.082031 -8.050781 13.976562 -7.777344 C 12.777344 -4.933594 11.578125 -3.632812 10.140625 -3.632812 C 9.351562 -3.632812 8.769531 -3.871094 8.394531 -4.351562 C 9.96875 -7.023438 11.066406 -10.378906 11.066406 -12.539062 C 11.066406 -14.59375 9.902344 -16.136719 7.640625 -16.203125 C 5.925781 -16.203125 4.25 -15.007812 2.808594 -12.609375 C 1.679688 -10.757812 -0.101562 -7.433594 -0.101562 -3.460938 C -0.101562 -1.472656 0.652344 0 2.878906 0 C 4.523438 0 6.269531 -1.40625 7.539062 -3.117188 C 8.289062 -2.5 9.183594 -2.191406 10.140625 -2.191406 C 12.195312 -2.191406 13.808594 -3.769531 15.3125 -7.230469 Z M 7.367188 -8.222656 C 7.023438 -8.222656 6.714844 -8.015625 6.644531 -7.675781 C 6.40625 -6.816406 6.339844 -5.308594 6.714844 -4.417969 C 5.585938 -2.808594 4.144531 -1.4375 2.878906 -1.4375 C 1.78125 -1.4375 1.371094 -2.296875 1.371094 -3.527344 C 1.371094 -7.058594 3.1875 -10.378906 4.078125 -11.855469 C 5.070312 -13.566406 6.304688 -14.765625 7.605469 -14.765625 C 8.769531 -14.765625 9.628906 -14.011719 9.628906 -12.574219 C 9.628906 -10.996094 8.976562 -8.632812 7.914062 -6.507812 C 7.949219 -6.75 7.949219 -7.023438 8.050781 -7.296875 C 8.1875 -7.777344 7.84375 -8.222656 7.367188 -8.222656 Z M 7.367188 -8.222656 "/></g></g></g><g fill="#ff3873" fill-opacity="0.502"><g transform="translate(46.682393, 45.99981)"><g><path d="M 15.210938 -8.152344 C 15.109375 -8.1875 15.007812 -8.222656 14.902344 -8.222656 C 14.628906 -8.222656 14.390625 -8.050781 14.253906 -7.777344 C 12.164062 -3.253906 10.929688 -1.4375 9.320312 -1.4375 C 8.597656 -1.4375 8.289062 -1.882812 8.289062 -2.878906 C 8.289062 -5.515625 10.964844 -10.003906 10.964844 -13.054688 C 10.964844 -14.867188 10.210938 -16.273438 7.742188 -16.273438 C 6.613281 -16.273438 5.550781 -15.621094 4.554688 -14.59375 L 4.832031 -15.28125 C 5.003906 -15.726562 4.660156 -16.238281 4.144531 -16.238281 C 3.835938 -16.238281 3.5625 -16.066406 3.460938 -15.757812 C 2.125 -12.09375 -0.0351562 -5.894531 -1.816406 -0.960938 C -1.953125 -0.546875 -1.746094 -0.171875 -1.371094 -0.0351562 C -0.992188 0.0703125 -0.582031 -0.101562 -0.445312 -0.515625 L 1.953125 -7.296875 C 3.050781 -10.210938 5.652344 -14.835938 7.742188 -14.835938 C 9.078125 -14.835938 9.523438 -14.046875 9.523438 -13.054688 C 9.523438 -10.074219 6.851562 -6.097656 6.851562 -2.878906 C 6.851562 -1.199219 7.675781 0 9.320312 0 C 11.648438 0 13.257812 -2.019531 15.589844 -7.195312 C 15.621094 -7.296875 15.65625 -7.398438 15.65625 -7.503906 C 15.65625 -7.777344 15.484375 -8.015625 15.210938 -8.152344 Z M 15.210938 -8.152344 "/></g></g></g><g fill="#ff3873" fill-opacity="0.502"><g transform="translate(60.349716, 45.99981)"><g><path d="M 20.007812 -7.503906 C 20.007812 -7.914062 19.632812 -8.222656 19.253906 -8.222656 C 18.980469 -8.222656 18.738281 -8.050781 18.601562 -7.777344 C 17.507812 -5.242188 16.410156 -3.632812 14.628906 -3.632812 C 14.011719 -3.632812 13.363281 -3.90625 13.019531 -4.351562 C 14.21875 -6.441406 17.097656 -12.164062 18.601562 -15.246094 C 18.636719 -15.347656 18.671875 -15.453125 18.671875 -15.589844 C 18.671875 -15.964844 18.363281 -16.308594 17.988281 -16.308594 C 17.710938 -16.308594 17.4375 -16.136719 17.300781 -15.898438 C 16.238281 -13.667969 13.566406 -8.429688 12.539062 -6.476562 C 12.574219 -6.714844 12.609375 -7.023438 12.710938 -7.296875 C 12.847656 -7.777344 12.46875 -8.222656 11.992188 -8.222656 C 11.648438 -8.222656 11.410156 -8.015625 11.304688 -7.675781 C 11.03125 -6.714844 10.964844 -5.449219 11.339844 -4.417969 C 9.796875 -2.226562 9.183594 -1.4375 8.085938 -1.4375 C 7.433594 -1.4375 7.058594 -1.78125 7.058594 -2.878906 C 7.058594 -4.589844 8.90625 -9.59375 11.066406 -15.3125 C 11.238281 -15.757812 10.894531 -16.273438 10.347656 -16.273438 C 10.074219 -16.273438 9.796875 -16.101562 9.695312 -15.828125 C 9.320312 -14.765625 7.398438 -9.351562 6.785156 -7.8125 C 4.933594 -3.1875 3.496094 -1.4375 1.851562 -1.4375 C 1.128906 -1.4375 0.820312 -1.851562 0.820312 -2.878906 C 0.820312 -4.214844 1.472656 -6.0625 4.832031 -15.3125 C 5.003906 -15.757812 4.726562 -16.273438 4.144531 -16.273438 C 3.871094 -16.273438 3.597656 -16.101562 3.496094 -15.828125 C 0.546875 -8.015625 -0.617188 -4.589844 -0.617188 -2.878906 C -0.617188 -1.199219 0.207031 0 1.851562 0 C 3.390625 0 4.625 -1.027344 5.617188 -2.433594 C 5.824219 -0.960938 6.507812 0 8.085938 0 C 9.695312 0 10.929688 -1.300781 12.230469 -3.117188 C 12.777344 -2.570312 13.601562 -2.191406 14.628906 -2.191406 C 17.0625 -2.191406 18.980469 -4.589844 19.9375 -7.230469 C 19.972656 -7.332031 20.007812 -7.398438 20.007812 -7.503906 Z M 20.007812 -7.503906 "/></g></g></g><g fill="#ff3873" fill-opacity="0.502"><g transform="translate(78.367294, 45.99981)"><g><path d="M 15.347656 -8.152344 C 15.246094 -8.1875 15.144531 -8.222656 15.039062 -8.222656 C 14.765625 -8.222656 14.527344 -8.050781 14.390625 -7.777344 L 14.355469 -7.675781 C 13.222656 -5.140625 11.578125 -1.4375 9.457031 -1.4375 C 8.734375 -1.4375 8.429688 -1.851562 8.429688 -2.878906 C 8.429688 -4.386719 9.558594 -7.367188 10.792969 -10.824219 L 12.503906 -15.417969 C 12.675781 -15.828125 12.402344 -16.375 11.855469 -16.375 C 11.546875 -16.375 11.273438 -16.203125 11.167969 -15.929688 C 10.996094 -15.484375 10.792969 -14.972656 10.585938 -14.390625 C 9.96875 -15.621094 8.90625 -16.203125 7.46875 -16.203125 C 3.359375 -16.203125 -0.101562 -8.1875 -0.101562 -3.699219 C -0.101562 -1.644531 0.789062 0 2.707031 0 C 4.179688 0 5.617188 -0.960938 6.988281 -2.878906 C 6.988281 -1.199219 7.8125 0 9.457031 0 C 12.539062 0 14.390625 -4.214844 15.691406 -7.09375 L 15.726562 -7.195312 C 15.757812 -7.296875 15.792969 -7.398438 15.792969 -7.503906 C 15.792969 -7.777344 15.621094 -8.015625 15.347656 -8.152344 Z M 2.671875 -1.4375 C 1.644531 -1.4375 1.335938 -2.433594 1.335938 -3.941406 C 1.40625 -7.332031 4.316406 -14.699219 7.46875 -14.765625 C 8.703125 -14.765625 9.59375 -13.839844 9.660156 -12.265625 L 8.839844 -10.074219 C 7.46875 -6.578125 5.449219 -1.4375 2.671875 -1.4375 Z M 2.671875 -1.4375 "/></g></g></g><g fill="#ff3873" fill-opacity="0.502"><g transform="translate(92.171636, 45.99981)"><g><path d="M 15.65625 -8.121094 C 15.554688 -8.152344 15.453125 -8.1875 15.347656 -8.1875 C 15.074219 -8.1875 14.835938 -8.015625 14.699219 -7.742188 C 12.984375 -3.699219 10.585938 -0.546875 6.644531 0.789062 L 7.160156 -0.71875 L 9.902344 -8.53125 C 10.996094 -11.511719 11.921875 -13.875 12.46875 -15.28125 C 12.640625 -15.792969 12.164062 -16.273438 11.75 -16.273438 C 11.476562 -16.273438 11.203125 -16.066406 11.101562 -15.792969 C 8.804688 -9.730469 9.011719 -10.347656 8.566406 -9.011719 C 7.195312 -5.070312 5.003906 -1.4375 3.1875 -1.4375 C 1.234375 -1.4375 0.925781 -2.671875 0.925781 -3.664062 C 0.925781 -4.898438 1.507812 -5.960938 3.015625 -10.105469 L 4.898438 -15.3125 C 5.070312 -15.757812 4.796875 -16.273438 4.214844 -16.273438 C 3.941406 -16.273438 3.664062 -16.101562 3.5625 -15.828125 L 1.644531 -10.621094 C 0.308594 -7.125 -0.480469 -5.242188 -0.546875 -3.664062 C -0.546875 -1.953125 0.273438 0 3.1875 0 C 4.144531 0 5.003906 -0.410156 5.789062 -1.164062 L 4.933594 1.300781 C 4.007812 1.542969 3.082031 1.714844 2.226562 1.851562 C -1.882812 2.605469 -3.5625 4.179688 -3.5625 6.339844 C -3.5625 8.359375 -2.226562 9.695312 -0.171875 9.660156 C 2.296875 9.628906 4.417969 7.195312 6.0625 2.5 C 11.066406 1.027344 13.910156 -2.160156 16.035156 -7.160156 C 16.066406 -7.261719 16.101562 -7.367188 16.101562 -7.46875 C 16.101562 -7.742188 15.929688 -7.984375 15.65625 -8.121094 Z M -0.171875 8.222656 C -1.335938 8.257812 -2.125 7.503906 -2.125 6.304688 C -1.988281 4.726562 -0.652344 3.835938 2.5 3.289062 C 3.117188 3.1875 3.734375 3.050781 4.386719 2.910156 C 3.253906 6.371094 1.679688 8.1875 -0.171875 8.222656 Z M -0.171875 8.222656 "/></g></g></g><g fill="#ff3873" fill-opacity="0.502"><g transform="translate(106.28426, 45.99981)"><g><path d="M 7.160156 -21.34375 C 7.023438 -20.933594 7.195312 -20.589844 7.503906 -20.351562 C 7.878906 -20.214844 8.257812 -20.351562 8.429688 -20.726562 L 10.449219 -26.039062 C 10.621094 -26.449219 10.347656 -26.894531 10.003906 -27.066406 C 9.628906 -27.203125 9.183594 -27.03125 9.042969 -26.652344 Z M 7.160156 -21.34375 "/></g></g></g><g fill="#ff3873" fill-opacity="0.502"><g transform="translate(113.477592, 45.99981)"><g><path d="M 11.304688 -6.0625 C 11.273438 -8.394531 10.347656 -9.59375 8.566406 -12.882812 C 9.628906 -14.082031 10.484375 -15.589844 10.484375 -16.957031 C 10.414062 -17.953125 9.832031 -18.738281 8.839844 -18.738281 C 7.433594 -18.738281 6.339844 -17.234375 6.339844 -15.453125 C 6.339844 -14.664062 6.542969 -13.910156 6.851562 -13.191406 C 6.441406 -12.777344 6.097656 -12.402344 5.6875 -11.921875 C 5.585938 -11.785156 5.515625 -11.613281 5.515625 -11.476562 C 5.515625 -11.273438 5.585938 -11.03125 5.753906 -10.894531 C 5.894531 -10.757812 6.097656 -10.722656 6.269531 -10.722656 C 6.476562 -10.722656 6.679688 -10.824219 6.816406 -10.996094 C 7.023438 -11.273438 7.261719 -11.546875 7.503906 -11.785156 C 9.320312 -8.597656 9.832031 -7.605469 9.867188 -6.097656 C 9.796875 -3.253906 7.8125 -1.4375 5.035156 -1.4375 C 3.050781 -1.4375 1.300781 -2.910156 1.300781 -5.003906 C 1.4375 -7.09375 2.671875 -8.667969 4.554688 -8.667969 C 5.449219 -8.667969 6.304688 -7.8125 6.371094 -6.644531 C 6.371094 -6.234375 6.679688 -5.925781 7.09375 -5.925781 C 7.503906 -5.925781 7.8125 -6.234375 7.8125 -6.644531 C 7.742188 -8.53125 6.304688 -10.105469 4.523438 -10.105469 C 1.78125 -10.105469 0.0703125 -8.085938 -0.136719 -5.003906 C -0.136719 -2.226562 2.191406 0 5.035156 0 C 8.496094 0 11.238281 -2.363281 11.304688 -6.0625 Z M 7.949219 -14.390625 C 7.84375 -14.765625 7.777344 -15.109375 7.777344 -15.484375 C 7.777344 -15.964844 7.878906 -16.582031 8.289062 -16.992188 C 8.632812 -17.335938 9.011719 -17.4375 9.011719 -16.957031 C 9.011719 -16.203125 8.496094 -15.144531 7.949219 -14.390625 Z M 7.949219 -14.390625 "/></g></g></g><g fill="#ff3873" fill-opacity="0.502"><g transform="translate(136.941549, 45.99981)"><g><path d="M 25.625 -8.121094 C 25.523438 -8.152344 25.421875 -8.1875 25.316406 -8.1875 C 25.042969 -8.1875 24.804688 -8.015625 24.667969 -7.742188 C 22.953125 -3.699219 20.554688 -0.546875 16.617188 0.789062 L 18.054688 -3.359375 C 18.707031 -5.242188 19.324219 -6.886719 19.871094 -8.460938 L 22.40625 -15.210938 C 22.578125 -15.65625 22.304688 -16.171875 21.722656 -16.171875 C 21.414062 -16.171875 21.171875 -16.066406 21.035156 -15.65625 L 20.691406 -14.730469 C 19.425781 -11.410156 17.882812 -8.085938 16.035156 -5.449219 C 14.113281 -2.636719 11.886719 -0.683594 9.351562 -0.683594 C 7.058594 -0.789062 5.753906 -1.917969 5.753906 -4.695312 C 5.753906 -6.40625 6.40625 -9.183594 7.195312 -11.476562 C 7.777344 -11.410156 8.1875 -11.375 8.703125 -11.375 C 14.800781 -11.375 21 -14.699219 21.242188 -20.453125 C 21.242188 -23.398438 19.324219 -25.351562 16.410156 -25.351562 C 12.503906 -25.351562 8.839844 -20.453125 6.269531 -13.085938 C 3.425781 -13.703125 1.4375 -15.417969 1.4375 -18.464844 C 1.4375 -19.597656 1.714844 -20.726562 2.160156 -21.789062 C 2.5 -22.644531 2.980469 -23.46875 3.5625 -24.117188 C 3.699219 -24.257812 3.734375 -24.425781 3.734375 -24.597656 C 3.734375 -24.804688 3.664062 -25.011719 3.496094 -25.148438 C 3.359375 -25.25 3.1875 -25.316406 3.015625 -25.316406 C 2.808594 -25.316406 2.605469 -25.25 2.464844 -25.078125 C 1.816406 -24.289062 1.234375 -23.367188 0.820312 -22.335938 C 0.308594 -21.070312 0 -19.734375 0 -18.398438 C 0 -14.902344 2.261719 -12.539062 5.753906 -11.71875 C 5.035156 -9.523438 4.316406 -6.679688 4.316406 -4.695312 C 4.316406 -1.40625 5.925781 0.652344 9.351562 0.753906 C 12.195312 0.753906 14.628906 -1.097656 16.71875 -3.871094 L 14.902344 1.300781 C 13.976562 1.542969 13.054688 1.714844 12.195312 1.851562 C 8.085938 2.605469 6.40625 4.179688 6.40625 6.339844 C 6.40625 8.359375 7.742188 9.695312 9.796875 9.660156 C 12.265625 9.628906 14.390625 7.195312 16.035156 2.5 C 21.035156 1.027344 23.878906 -2.160156 26.003906 -7.160156 C 26.039062 -7.261719 26.070312 -7.367188 26.070312 -7.46875 C 26.070312 -7.742188 25.902344 -7.984375 25.625 -8.121094 Z M 7.707031 -12.847656 C 10.074219 -19.492188 13.15625 -23.914062 16.410156 -23.914062 C 18.433594 -23.914062 19.800781 -22.542969 19.800781 -20.453125 C 19.800781 -15.621094 12.984375 -12.195312 7.707031 -12.847656 Z M 14.355469 2.910156 C 13.222656 6.371094 11.648438 8.1875 9.796875 8.222656 C 8.632812 8.257812 7.84375 7.503906 7.84375 6.304688 C 7.984375 4.726562 9.320312 3.835938 12.46875 3.289062 C 13.085938 3.1875 13.703125 3.050781 14.355469 2.910156 Z M 14.355469 2.910156 "/></g></g></g><g fill="#ff3873" fill-opacity="0.502"><g transform="translate(161.022079, 45.99981)"><g><path d="M 15.347656 -8.152344 C 15.246094 -8.1875 15.144531 -8.222656 15.039062 -8.222656 C 14.765625 -8.222656 14.527344 -8.050781 14.390625 -7.777344 L 14.355469 -7.675781 C 13.222656 -5.140625 11.578125 -1.4375 9.457031 -1.4375 C 8.734375 -1.4375 8.429688 -1.851562 8.429688 -2.878906 C 8.429688 -4.386719 9.558594 -7.367188 10.792969 -10.824219 L 12.503906 -15.417969 C 12.675781 -15.828125 12.402344 -16.375 11.855469 -16.375 C 11.546875 -16.375 11.273438 -16.203125 11.167969 -15.929688 C 10.996094 -15.484375 10.792969 -14.972656 10.585938 -14.390625 C 9.96875 -15.621094 8.90625 -16.203125 7.46875 -16.203125 C 3.359375 -16.203125 -0.101562 -8.1875 -0.101562 -3.699219 C -0.101562 -1.644531 0.789062 0 2.707031 0 C 4.179688 0 5.617188 -0.960938 6.988281 -2.878906 C 6.988281 -1.199219 7.8125 0 9.457031 0 C 12.539062 0 14.390625 -4.214844 15.691406 -7.09375 L 15.726562 -7.195312 C 15.757812 -7.296875 15.792969 -7.398438 15.792969 -7.503906 C 15.792969 -7.777344 15.621094 -8.015625 15.347656 -8.152344 Z M 2.671875 -1.4375 C 1.644531 -1.4375 1.335938 -2.433594 1.335938 -3.941406 C 1.40625 -7.332031 4.316406 -14.699219 7.46875 -14.765625 C 8.703125 -14.765625 9.59375 -13.839844 9.660156 -12.265625 L 8.839844 -10.074219 C 7.46875 -6.578125 5.449219 -1.4375 2.671875 -1.4375 Z M 2.671875 -1.4375 "/></g></g></g><g fill="#ff3873" fill-opacity="0.502"><g transform="translate(174.826421, 45.99981)"><g><path d="M 23.125 -7.503906 C 23.125 -7.878906 22.75 -8.222656 22.40625 -8.222656 C 22.132812 -8.222656 21.824219 -8.050781 21.722656 -7.777344 C 19.871094 -3.460938 18.5 -1.4375 16.820312 -1.4375 C 16.101562 -1.4375 15.792969 -1.882812 15.792969 -2.878906 C 15.792969 -5.824219 18.433594 -9.765625 18.433594 -13.054688 C 18.433594 -14.867188 17.679688 -16.273438 15.210938 -16.273438 C 13.601562 -16.273438 11.855469 -14.699219 10.859375 -13.121094 C 10.859375 -14.9375 9.765625 -16.273438 7.707031 -16.273438 C 6.542969 -16.273438 5.449219 -15.484375 4.453125 -14.320312 C 4.554688 -14.664062 4.660156 -14.9375 4.796875 -15.246094 C 4.96875 -15.691406 4.625 -16.203125 4.109375 -16.203125 C 3.804688 -16.203125 3.527344 -16.035156 3.425781 -15.726562 C 1.679688 -10.792969 -0.101562 -5.859375 -1.851562 -0.925781 C -1.988281 -0.546875 -1.78125 -0.136719 -1.40625 0 C -1.027344 0.101562 -0.617188 -0.0703125 -0.480469 -0.480469 L 1.851562 -7.09375 C 2.054688 -7.640625 4.109375 -11.410156 4.726562 -12.332031 C 5.722656 -13.738281 6.75 -14.835938 7.707031 -14.835938 C 8.941406 -14.835938 9.421875 -14.183594 9.421875 -12.917969 C 9.421875 -11.71875 8.90625 -10.175781 8.1875 -8.085938 C 8.152344 -8.015625 5.894531 -1.300781 5.859375 -1.199219 C 5.6875 -0.753906 6.03125 -0.238281 6.542969 -0.238281 C 6.851562 -0.238281 7.125 -0.410156 7.230469 -0.71875 C 7.195312 -0.652344 9.488281 -7.367188 9.558594 -7.570312 C 10.550781 -10.347656 13.222656 -14.835938 15.210938 -14.835938 C 16.582031 -14.835938 16.992188 -14.046875 16.992188 -13.054688 C 16.992188 -10.242188 14.320312 -5.996094 14.320312 -2.878906 C 14.320312 -1.199219 15.144531 0 16.820312 0 C 19.871094 0 21.753906 -4.214844 23.023438 -7.09375 C 23.089844 -7.332031 23.125 -7.398438 23.125 -7.503906 Z M 23.125 -7.503906 "/></g></g></g><g fill="#ff3873" fill-opacity="0.502"><g transform="translate(195.961105, 45.99981)"><g><path d="M 12.402344 -8.152344 C 12.023438 -8.289062 11.613281 -8.121094 11.441406 -7.777344 C 9.523438 -3.359375 7.332031 -1.371094 4.523438 -1.4375 C 2.464844 -1.507812 1.371094 -2.707031 1.4375 -4.660156 C 1.472656 -5.378906 1.574219 -6.03125 1.816406 -6.921875 C 5.617188 -7.84375 10.722656 -10.039062 10.722656 -13.667969 C 10.722656 -15.3125 9.523438 -16.203125 7.8125 -16.203125 C 3.769531 -16.203125 0.207031 -9.078125 0 -4.695312 C -0.0703125 -1.882812 1.644531 0 4.488281 0 C 7.949219 0 10.550781 -2.261719 12.777344 -7.195312 C 12.8125 -7.296875 12.847656 -7.367188 12.847656 -7.46875 C 12.847656 -7.742188 12.675781 -8.015625 12.402344 -8.152344 Z M 2.363281 -8.566406 C 3.460938 -11.203125 5.449219 -14.765625 7.8125 -14.765625 C 8.566406 -14.765625 9.285156 -14.59375 9.285156 -13.667969 C 9.285156 -11.132812 5.207031 -9.457031 2.363281 -8.566406 Z M 2.363281 -8.566406 "/></g></g></g><g fill="#ff3873" fill-opacity="0.502"><g transform="translate(217.095824, 45.99981)"><g><path d="M 15.3125 -7.230469 C 15.519531 -7.707031 15.144531 -8.222656 14.628906 -8.222656 C 14.355469 -8.222656 14.082031 -8.050781 13.976562 -7.777344 C 12.777344 -4.933594 11.578125 -3.632812 10.140625 -3.632812 C 9.351562 -3.632812 8.769531 -3.871094 8.394531 -4.351562 C 9.96875 -7.023438 11.066406 -10.378906 11.066406 -12.539062 C 11.066406 -14.59375 9.902344 -16.136719 7.640625 -16.203125 C 5.925781 -16.203125 4.25 -15.007812 2.808594 -12.609375 C 1.679688 -10.757812 -0.101562 -7.433594 -0.101562 -3.460938 C -0.101562 -1.472656 0.652344 0 2.878906 0 C 4.523438 0 6.269531 -1.40625 7.539062 -3.117188 C 8.289062 -2.5 9.183594 -2.191406 10.140625 -2.191406 C 12.195312 -2.191406 13.808594 -3.769531 15.3125 -7.230469 Z M 7.367188 -8.222656 C 7.023438 -8.222656 6.714844 -8.015625 6.644531 -7.675781 C 6.40625 -6.816406 6.339844 -5.308594 6.714844 -4.417969 C 5.585938 -2.808594 4.144531 -1.4375 2.878906 -1.4375 C 1.78125 -1.4375 1.371094 -2.296875 1.371094 -3.527344 C 1.371094 -7.058594 3.1875 -10.378906 4.078125 -11.855469 C 5.070312 -13.566406 6.304688 -14.765625 7.605469 -14.765625 C 8.769531 -14.765625 9.628906 -14.011719 9.628906 -12.574219 C 9.628906 -10.996094 8.976562 -8.632812 7.914062 -6.507812 C 7.949219 -6.75 7.949219 -7.023438 8.050781 -7.296875 C 8.1875 -7.777344 7.84375 -8.222656 7.367188 -8.222656 Z M 7.367188 -8.222656 "/></g></g></g><g fill="#ff3873" fill-opacity="0.502"><g transform="translate(230.489118, 45.99981)"><g><path d="M 13.394531 -24.90625 C 12.917969 -25.867188 12.023438 -26.378906 10.929688 -26.378906 C 8.152344 -26.378906 6.199219 -22.886719 4.863281 -19.355469 L 3.664062 -16.203125 L 0.890625 -16.203125 C 0.480469 -16.203125 0.171875 -15.863281 0.171875 -15.484375 C 0.171875 -15.074219 0.480469 -14.765625 0.890625 -14.765625 L 3.117188 -14.765625 C 1.027344 -9.25 -0.0703125 -5.6875 -2.605469 1.300781 C -3.527344 1.542969 -4.453125 1.714844 -5.308594 1.851562 C -9.421875 2.605469 -11.101562 4.179688 -11.101562 6.339844 C -11.101562 8.359375 -9.765625 9.695312 -7.707031 9.660156 C -5.242188 9.628906 -3.117188 7.195312 -1.472656 2.5 C 3.527344 1.027344 6.371094 -2.160156 8.496094 -7.160156 C 8.53125 -7.261719 8.566406 -7.367188 8.566406 -7.46875 C 8.566406 -7.742188 8.394531 -7.984375 8.121094 -8.121094 C 8.015625 -8.152344 7.914062 -8.1875 7.8125 -8.1875 C 7.539062 -8.1875 7.296875 -8.015625 7.160156 -7.742188 C 5.449219 -3.699219 3.050781 -0.546875 -0.890625 0.789062 C 2.570312 -9.078125 3.632812 -11.992188 4.660156 -14.765625 L 7.398438 -14.765625 C 7.777344 -14.765625 8.121094 -15.074219 8.121094 -15.484375 C 8.121094 -15.863281 7.777344 -16.203125 7.398438 -16.203125 L 5.207031 -16.203125 C 5.515625 -17.0625 5.894531 -17.988281 6.234375 -18.808594 C 7.332031 -21.722656 9.011719 -25.011719 10.996094 -24.90625 C 11.375 -24.90625 11.820312 -24.804688 12.128906 -24.289062 C 12.265625 -24.015625 12.503906 -23.878906 12.777344 -23.878906 C 12.882812 -23.878906 12.984375 -23.914062 13.085938 -23.949219 C 13.328125 -24.085938 13.5 -24.324219 13.5 -24.597656 C 13.5 -24.703125 13.464844 -24.804688 13.394531 -24.90625 Z M -3.152344 2.910156 C -4.28125 6.371094 -5.859375 8.1875 -7.707031 8.222656 C -8.875 8.257812 -9.660156 7.503906 -9.660156 6.304688 C -9.523438 4.726562 -8.1875 3.835938 -5.035156 3.289062 C -4.417969 3.1875 -3.804688 3.050781 -3.152344 2.910156 Z M -3.152344 2.910156 "/></g></g></g><g fill="#ff3873" fill-opacity="0.502"><g transform="translate(247.342052, 45.99981)"><g><path d="M 14.835938 -22.441406 L 11.921875 -21.996094 C 6.785156 -21.207031 1.234375 -20.351562 0.582031 -15.589844 C 0.546875 -15.417969 0.546875 -15.210938 0.546875 -15.039062 C 0.515625 -13.945312 0.789062 -12.882812 1.40625 -12.09375 C 2.019531 -11.238281 2.945312 -10.65625 4.144531 -10.484375 C 4.28125 -10.449219 4.453125 -10.449219 4.625 -10.449219 C 5.035156 -10.449219 5.378906 -10.757812 5.378906 -11.132812 C 5.414062 -11.546875 5.105469 -11.886719 4.695312 -11.886719 L 4.351562 -11.921875 C 3.5625 -12.023438 2.980469 -12.402344 2.570312 -12.949219 C 2.160156 -13.5 1.953125 -14.21875 1.988281 -14.972656 C 1.988281 -15.109375 1.988281 -15.246094 2.019531 -15.382812 C 2.535156 -19.082031 7.570312 -19.871094 12.164062 -20.589844 C 12.847656 -20.691406 13.566406 -20.796875 14.253906 -20.933594 C 13.53125 -18.980469 12.847656 -16.789062 12.265625 -14.867188 C 10.964844 -10.65625 10.449219 -9.148438 9.796875 -7.46875 C 9.386719 -6.476562 8.941406 -5.515625 8.429688 -4.660156 C 6.851562 -5.996094 5.242188 -6.886719 3.769531 -6.886719 C 1.78125 -6.886719 0.136719 -5.515625 0 -3.117188 C 0 -1.097656 1.199219 0 3.5625 0.171875 C 5.378906 0.171875 7.195312 -0.71875 8.394531 -2.125 C 8.496094 -2.226562 8.597656 -2.363281 8.703125 -2.5 C 9.558594 -1.746094 10.414062 -0.855469 11.304688 0 C 14.285156 2.980469 17.679688 6.507812 21.308594 6.507812 C 23.367188 6.507812 25.625 5.652344 26.484375 3.734375 C 26.515625 3.632812 26.550781 3.527344 26.550781 3.460938 C 26.550781 3.1875 26.3125 2.707031 25.832031 2.707031 C 25.558594 2.707031 25.285156 2.878906 25.179688 3.152344 C 24.632812 4.351562 23.058594 5.035156 21.34375 5.035156 C 18.226562 5.035156 15.175781 1.816406 12.332031 -1.027344 C 11.375 -1.953125 10.449219 -2.878906 9.523438 -3.734375 C 10.140625 -4.695312 10.65625 -5.753906 11.132812 -6.921875 C 11.785156 -8.53125 12.539062 -10.824219 13.667969 -14.421875 C 14.320312 -16.648438 15.109375 -19.1875 15.929688 -21.242188 C 18.363281 -21.890625 20.832031 -23.195312 20.832031 -24.804688 C 20.832031 -25.902344 20.007812 -26.652344 18.808594 -26.652344 C 17.0625 -26.652344 15.589844 -24.425781 14.835938 -22.441406 Z M 16.617188 -22.953125 C 17.164062 -24.117188 18.054688 -25.285156 18.808594 -25.285156 C 19.082031 -25.285156 19.289062 -25.078125 19.289062 -24.804688 C 19.289062 -24.257812 18.054688 -23.261719 16.617188 -22.953125 Z M 7.296875 -3.050781 C 6.371094 -1.988281 4.933594 -1.269531 3.5625 -1.269531 C 2.398438 -1.269531 1.4375 -1.78125 1.4375 -3.117188 C 1.507812 -4.554688 2.535156 -5.449219 3.734375 -5.449219 C 4.898438 -5.449219 6.199219 -4.625 7.640625 -3.460938 C 7.503906 -3.324219 7.398438 -3.1875 7.296875 -3.050781 Z M 7.296875 -3.050781 "/></g></g></g><g fill="#ff3873" fill-opacity="0.502"><g transform="translate(264.743067, 45.99981)"><g><path d="M 5.585938 -17.953125 C 6.234375 -17.953125 6.75 -18.464844 6.75 -19.117188 C 6.75 -19.769531 6.234375 -20.28125 5.585938 -20.28125 C 4.933594 -20.28125 4.386719 -19.769531 4.386719 -19.117188 C 4.386719 -18.464844 4.933594 -17.953125 5.585938 -17.953125 Z M 7.84375 -8.152344 C 7.742188 -8.1875 7.675781 -8.222656 7.570312 -8.222656 C 7.296875 -8.222656 7.023438 -8.050781 6.886719 -7.777344 C 5.617188 -4.96875 4.042969 -1.4375 1.917969 -1.4375 C 1.199219 -1.4375 0.890625 -1.882812 0.890625 -2.878906 C 0.890625 -4.351562 1.507812 -5.925781 4.832031 -15.28125 C 5.035156 -15.863281 4.589844 -16.203125 4.144531 -16.203125 C 3.871094 -16.203125 3.597656 -16.035156 3.496094 -15.726562 C 1.988281 -11.820312 -0.445312 -5.550781 -0.546875 -2.878906 C -0.617188 -1.300781 0.273438 0 1.917969 0 C 4.796875 0 6.578125 -3.496094 8.222656 -7.195312 C 8.257812 -7.296875 8.289062 -7.398438 8.289062 -7.503906 C 8.289062 -7.777344 8.121094 -8.050781 7.84375 -8.152344 Z M 7.84375 -8.152344 "/></g></g></g><g fill="#ff3873" fill-opacity="0.502"><g transform="translate(271.045786, 45.99981)"><g><path d="M 13.394531 -24.90625 C 12.917969 -25.867188 12.023438 -26.378906 10.929688 -26.378906 C 8.152344 -26.378906 6.199219 -22.886719 4.863281 -19.355469 L 3.664062 -16.203125 L 0.890625 -16.203125 C 0.480469 -16.203125 0.171875 -15.863281 0.171875 -15.484375 C 0.171875 -15.074219 0.480469 -14.765625 0.890625 -14.765625 L 3.117188 -14.765625 C 1.027344 -9.25 -0.0703125 -5.6875 -2.605469 1.300781 C -3.527344 1.542969 -4.453125 1.714844 -5.308594 1.851562 C -9.421875 2.605469 -11.101562 4.179688 -11.101562 6.339844 C -11.101562 8.359375 -9.765625 9.695312 -7.707031 9.660156 C -5.242188 9.628906 -3.117188 7.195312 -1.472656 2.5 C 3.527344 1.027344 6.371094 -2.160156 8.496094 -7.160156 C 8.53125 -7.261719 8.566406 -7.367188 8.566406 -7.46875 C 8.566406 -7.742188 8.394531 -7.984375 8.121094 -8.121094 C 8.015625 -8.152344 7.914062 -8.1875 7.8125 -8.1875 C 7.539062 -8.1875 7.296875 -8.015625 7.160156 -7.742188 C 5.449219 -3.699219 3.050781 -0.546875 -0.890625 0.789062 C 2.570312 -9.078125 3.632812 -11.992188 4.660156 -14.765625 L 7.398438 -14.765625 C 7.777344 -14.765625 8.121094 -15.074219 8.121094 -15.484375 C 8.121094 -15.863281 7.777344 -16.203125 7.398438 -16.203125 L 5.207031 -16.203125 C 5.515625 -17.0625 5.894531 -17.988281 6.234375 -18.808594 C 7.332031 -21.722656 9.011719 -25.011719 10.996094 -24.90625 C 11.375 -24.90625 11.820312 -24.804688 12.128906 -24.289062 C 12.265625 -24.015625 12.503906 -23.878906 12.777344 -23.878906 C 12.882812 -23.878906 12.984375 -23.914062 13.085938 -23.949219 C 13.328125 -24.085938 13.5 -24.324219 13.5 -24.597656 C 13.5 -24.703125 13.464844 -24.804688 13.394531 -24.90625 Z M -3.152344 2.910156 C -4.28125 6.371094 -5.859375 8.1875 -7.707031 8.222656 C -8.875 8.257812 -9.660156 7.503906 -9.660156 6.304688 C -9.523438 4.726562 -8.1875 3.835938 -5.035156 3.289062 C -4.417969 3.1875 -3.804688 3.050781 -3.152344 2.910156 Z M -3.152344 2.910156 "/></g></g></g><g fill="#ff3873" fill-opacity="0.502"><g transform="translate(277.622544, 45.99981)"><g><path d="M 12.402344 -8.152344 C 12.023438 -8.289062 11.613281 -8.121094 11.441406 -7.777344 C 9.523438 -3.359375 7.332031 -1.371094 4.523438 -1.4375 C 2.464844 -1.507812 1.371094 -2.707031 1.4375 -4.660156 C 1.472656 -5.378906 1.574219 -6.03125 1.816406 -6.921875 C 5.617188 -7.84375 10.722656 -10.039062 10.722656 -13.667969 C 10.722656 -15.3125 9.523438 -16.203125 7.8125 -16.203125 C 3.769531 -16.203125 0.207031 -9.078125 0 -4.695312 C -0.0703125 -1.882812 1.644531 0 4.488281 0 C 7.949219 0 10.550781 -2.261719 12.777344 -7.195312 C 12.8125 -7.296875 12.847656 -7.367188 12.847656 -7.46875 C 12.847656 -7.742188 12.675781 -8.015625 12.402344 -8.152344 Z M 2.363281 -8.566406 C 3.460938 -11.203125 5.449219 -14.765625 7.8125 -14.765625 C 8.566406 -14.765625 9.285156 -14.59375 9.285156 -13.667969 C 9.285156 -11.132812 5.207031 -9.457031 2.363281 -8.566406 Z M 2.363281 -8.566406 "/></g></g></g><g fill="#ff83a8" fill-opacity="1"><g transform="translate(12.251462, 45.630383)"><g><path d="M 21.824219 -8.1875 C 21.480469 -8.324219 21.035156 -8.152344 20.898438 -7.777344 C 18.671875 -2.328125 15.828125 0.890625 11.101562 0.890625 C 7.742188 0.890625 5.753906 -1.027344 5.753906 -4.695312 C 5.753906 -6.679688 6.40625 -8.941406 7.195312 -11.476562 C 7.777344 -11.410156 8.1875 -11.375 8.703125 -11.375 C 14.527344 -11.375 21.242188 -14.699219 21.242188 -20.453125 C 21.242188 -23.160156 19.800781 -25.179688 16.992188 -25.25 C 12.128906 -25.351562 8.1875 -18.570312 6.269531 -13.085938 C 3.425781 -13.703125 1.4375 -15.417969 1.4375 -18.464844 C 1.4375 -20.351562 2.328125 -22.75 3.5625 -24.117188 C 3.699219 -24.257812 3.734375 -24.425781 3.734375 -24.597656 C 3.734375 -25.042969 3.390625 -25.316406 3.015625 -25.316406 C 2.808594 -25.316406 2.605469 -25.25 2.464844 -25.078125 C 0.960938 -23.226562 0 -20.726562 0 -18.398438 C 0 -14.902344 2.261719 -12.539062 5.753906 -11.71875 C 4.933594 -9.148438 4.316406 -6.785156 4.316406 -4.695312 C 4.316406 -0.445312 6.644531 2.328125 11.101562 2.328125 C 16.445312 2.328125 19.769531 -1.269531 22.234375 -7.230469 C 22.371094 -7.605469 22.199219 -8.015625 21.824219 -8.1875 Z M 7.707031 -12.847656 C 9.320312 -17.371094 12.949219 -23.8125 16.992188 -23.8125 C 18.878906 -23.8125 19.800781 -22.40625 19.800781 -20.453125 C 19.800781 -15.589844 13.667969 -12.8125 8.597656 -12.8125 C 8.289062 -12.8125 7.984375 -12.8125 7.707031 -12.847656 Z M 7.707031 -12.847656 "/></g></g></g><g fill="#ff83a8" fill-opacity="1"><g transform="translate(32.56406, 45.630383)"><g><path d="M 15.3125 -7.230469 C 15.519531 -7.707031 15.144531 -8.222656 14.628906 -8.222656 C 14.355469 -8.222656 14.082031 -8.050781 13.976562 -7.777344 C 12.777344 -4.933594 11.578125 -3.632812 10.140625 -3.632812 C 9.351562 -3.632812 8.769531 -3.871094 8.394531 -4.351562 C 9.96875 -7.023438 11.066406 -10.378906 11.066406 -12.539062 C 11.066406 -14.59375 9.902344 -16.136719 7.640625 -16.203125 C 5.925781 -16.203125 4.25 -15.007812 2.808594 -12.609375 C 1.679688 -10.757812 -0.101562 -7.433594 -0.101562 -3.460938 C -0.101562 -1.472656 0.652344 0 2.878906 0 C 4.523438 0 6.269531 -1.40625 7.539062 -3.117188 C 8.289062 -2.5 9.183594 -2.191406 10.140625 -2.191406 C 12.195312 -2.191406 13.808594 -3.769531 15.3125 -7.230469 Z M 7.367188 -8.222656 C 7.023438 -8.222656 6.714844 -8.015625 6.644531 -7.675781 C 6.40625 -6.816406 6.339844 -5.308594 6.714844 -4.417969 C 5.585938 -2.808594 4.144531 -1.4375 2.878906 -1.4375 C 1.78125 -1.4375 1.371094 -2.296875 1.371094 -3.527344 C 1.371094 -7.058594 3.1875 -10.378906 4.078125 -11.855469 C 5.070312 -13.566406 6.304688 -14.765625 7.605469 -14.765625 C 8.769531 -14.765625 9.628906 -14.011719 9.628906 -12.574219 C 9.628906 -10.996094 8.976562 -8.632812 7.914062 -6.507812 C 7.949219 -6.75 7.949219 -7.023438 8.050781 -7.296875 C 8.1875 -7.777344 7.84375 -8.222656 7.367188 -8.222656 Z M 7.367188 -8.222656 "/></g></g></g><g fill="#ff83a8" fill-opacity="1"><g transform="translate(45.957354, 45.630383)"><g><path d="M 15.210938 -8.152344 C 15.109375 -8.1875 15.007812 -8.222656 14.902344 -8.222656 C 14.628906 -8.222656 14.390625 -8.050781 14.253906 -7.777344 C 12.164062 -3.253906 10.929688 -1.4375 9.320312 -1.4375 C 8.597656 -1.4375 8.289062 -1.882812 8.289062 -2.878906 C 8.289062 -5.515625 10.964844 -10.003906 10.964844 -13.054688 C 10.964844 -14.867188 10.210938 -16.273438 7.742188 -16.273438 C 6.613281 -16.273438 5.550781 -15.621094 4.554688 -14.59375 L 4.832031 -15.28125 C 5.003906 -15.726562 4.660156 -16.238281 4.144531 -16.238281 C 3.835938 -16.238281 3.5625 -16.066406 3.460938 -15.757812 C 2.125 -12.09375 -0.0351562 -5.894531 -1.816406 -0.960938 C -1.953125 -0.546875 -1.746094 -0.171875 -1.371094 -0.0351562 C -0.992188 0.0703125 -0.582031 -0.101562 -0.445312 -0.515625 L 1.953125 -7.296875 C 3.050781 -10.210938 5.652344 -14.835938 7.742188 -14.835938 C 9.078125 -14.835938 9.523438 -14.046875 9.523438 -13.054688 C 9.523438 -10.074219 6.851562 -6.097656 6.851562 -2.878906 C 6.851562 -1.199219 7.675781 0 9.320312 0 C 11.648438 0 13.257812 -2.019531 15.589844 -7.195312 C 15.621094 -7.296875 15.65625 -7.398438 15.65625 -7.503906 C 15.65625 -7.777344 15.484375 -8.015625 15.210938 -8.152344 Z M 15.210938 -8.152344 "/></g></g></g><g fill="#ff83a8" fill-opacity="1"><g transform="translate(59.624677, 45.630383)"><g><path d="M 20.007812 -7.503906 C 20.007812 -7.914062 19.632812 -8.222656 19.253906 -8.222656 C 18.980469 -8.222656 18.738281 -8.050781 18.601562 -7.777344 C 17.507812 -5.242188 16.410156 -3.632812 14.628906 -3.632812 C 14.011719 -3.632812 13.363281 -3.90625 13.019531 -4.351562 C 14.21875 -6.441406 17.097656 -12.164062 18.601562 -15.246094 C 18.636719 -15.347656 18.671875 -15.453125 18.671875 -15.589844 C 18.671875 -15.964844 18.363281 -16.308594 17.988281 -16.308594 C 17.710938 -16.308594 17.4375 -16.136719 17.300781 -15.898438 C 16.238281 -13.667969 13.566406 -8.429688 12.539062 -6.476562 C 12.574219 -6.714844 12.609375 -7.023438 12.710938 -7.296875 C 12.847656 -7.777344 12.46875 -8.222656 11.992188 -8.222656 C 11.648438 -8.222656 11.410156 -8.015625 11.304688 -7.675781 C 11.03125 -6.714844 10.964844 -5.449219 11.339844 -4.417969 C 9.796875 -2.226562 9.183594 -1.4375 8.085938 -1.4375 C 7.433594 -1.4375 7.058594 -1.78125 7.058594 -2.878906 C 7.058594 -4.589844 8.90625 -9.59375 11.066406 -15.3125 C 11.238281 -15.757812 10.894531 -16.273438 10.347656 -16.273438 C 10.074219 -16.273438 9.796875 -16.101562 9.695312 -15.828125 C 9.320312 -14.765625 7.398438 -9.351562 6.785156 -7.8125 C 4.933594 -3.1875 3.496094 -1.4375 1.851562 -1.4375 C 1.128906 -1.4375 0.820312 -1.851562 0.820312 -2.878906 C 0.820312 -4.214844 1.472656 -6.0625 4.832031 -15.3125 C 5.003906 -15.757812 4.726562 -16.273438 4.144531 -16.273438 C 3.871094 -16.273438 3.597656 -16.101562 3.496094 -15.828125 C 0.546875 -8.015625 -0.617188 -4.589844 -0.617188 -2.878906 C -0.617188 -1.199219 0.207031 0 1.851562 0 C 3.390625 0 4.625 -1.027344 5.617188 -2.433594 C 5.824219 -0.960938 6.507812 0 8.085938 0 C 9.695312 0 10.929688 -1.300781 12.230469 -3.117188 C 12.777344 -2.570312 13.601562 -2.191406 14.628906 -2.191406 C 17.0625 -2.191406 18.980469 -4.589844 19.9375 -7.230469 C 19.972656 -7.332031 20.007812 -7.398438 20.007812 -7.503906 Z M 20.007812 -7.503906 "/></g></g></g><g fill="#ff83a8" fill-opacity="1"><g transform="translate(77.642255, 45.630383)"><g><path d="M 15.347656 -8.152344 C 15.246094 -8.1875 15.144531 -8.222656 15.039062 -8.222656 C 14.765625 -8.222656 14.527344 -8.050781 14.390625 -7.777344 L 14.355469 -7.675781 C 13.222656 -5.140625 11.578125 -1.4375 9.457031 -1.4375 C 8.734375 -1.4375 8.429688 -1.851562 8.429688 -2.878906 C 8.429688 -4.386719 9.558594 -7.367188 10.792969 -10.824219 L 12.503906 -15.417969 C 12.675781 -15.828125 12.402344 -16.375 11.855469 -16.375 C 11.546875 -16.375 11.273438 -16.203125 11.167969 -15.929688 C 10.996094 -15.484375 10.792969 -14.972656 10.585938 -14.390625 C 9.96875 -15.621094 8.90625 -16.203125 7.46875 -16.203125 C 3.359375 -16.203125 -0.101562 -8.1875 -0.101562 -3.699219 C -0.101562 -1.644531 0.789062 0 2.707031 0 C 4.179688 0 5.617188 -0.960938 6.988281 -2.878906 C 6.988281 -1.199219 7.8125 0 9.457031 0 C 12.539062 0 14.390625 -4.214844 15.691406 -7.09375 L 15.726562 -7.195312 C 15.757812 -7.296875 15.792969 -7.398438 15.792969 -7.503906 C 15.792969 -7.777344 15.621094 -8.015625 15.347656 -8.152344 Z M 2.671875 -1.4375 C 1.644531 -1.4375 1.335938 -2.433594 1.335938 -3.941406 C 1.40625 -7.332031 4.316406 -14.699219 7.46875 -14.765625 C 8.703125 -14.765625 9.59375 -13.839844 9.660156 -12.265625 L 8.839844 -10.074219 C 7.46875 -6.578125 5.449219 -1.4375 2.671875 -1.4375 Z M 2.671875 -1.4375 "/></g></g></g><g fill="#ff83a8" fill-opacity="1"><g transform="translate(91.446597, 45.630383)"><g><path d="M 15.65625 -8.121094 C 15.554688 -8.152344 15.453125 -8.1875 15.347656 -8.1875 C 15.074219 -8.1875 14.835938 -8.015625 14.699219 -7.742188 C 12.984375 -3.699219 10.585938 -0.546875 6.644531 0.789062 L 7.160156 -0.71875 L 9.902344 -8.53125 C 10.996094 -11.511719 11.921875 -13.875 12.46875 -15.28125 C 12.640625 -15.792969 12.164062 -16.273438 11.75 -16.273438 C 11.476562 -16.273438 11.203125 -16.066406 11.101562 -15.792969 C 8.804688 -9.730469 9.011719 -10.347656 8.566406 -9.011719 C 7.195312 -5.070312 5.003906 -1.4375 3.1875 -1.4375 C 1.234375 -1.4375 0.925781 -2.671875 0.925781 -3.664062 C 0.925781 -4.898438 1.507812 -5.960938 3.015625 -10.105469 L 4.898438 -15.3125 C 5.070312 -15.757812 4.796875 -16.273438 4.214844 -16.273438 C 3.941406 -16.273438 3.664062 -16.101562 3.5625 -15.828125 L 1.644531 -10.621094 C 0.308594 -7.125 -0.480469 -5.242188 -0.546875 -3.664062 C -0.546875 -1.953125 0.273438 0 3.1875 0 C 4.144531 0 5.003906 -0.410156 5.789062 -1.164062 L 4.933594 1.300781 C 4.007812 1.542969 3.082031 1.714844 2.226562 1.851562 C -1.882812 2.605469 -3.5625 4.179688 -3.5625 6.339844 C -3.5625 8.359375 -2.226562 9.695312 -0.171875 9.660156 C 2.296875 9.628906 4.417969 7.195312 6.0625 2.5 C 11.066406 1.027344 13.910156 -2.160156 16.035156 -7.160156 C 16.066406 -7.261719 16.101562 -7.367188 16.101562 -7.46875 C 16.101562 -7.742188 15.929688 -7.984375 15.65625 -8.121094 Z M -0.171875 8.222656 C -1.335938 8.257812 -2.125 7.503906 -2.125 6.304688 C -1.988281 4.726562 -0.652344 3.835938 2.5 3.289062 C 3.117188 3.1875 3.734375 3.050781 4.386719 2.910156 C 3.253906 6.371094 1.679688 8.1875 -0.171875 8.222656 Z M -0.171875 8.222656 "/></g></g></g><g fill="#ff83a8" fill-opacity="1"><g transform="translate(105.559221, 45.630383)"><g><path d="M 7.160156 -21.34375 C 7.023438 -20.933594 7.195312 -20.589844 7.503906 -20.351562 C 7.878906 -20.214844 8.257812 -20.351562 8.429688 -20.726562 L 10.449219 -26.039062 C 10.621094 -26.449219 10.347656 -26.894531 10.003906 -27.066406 C 9.628906 -27.203125 9.183594 -27.03125 9.042969 -26.652344 Z M 7.160156 -21.34375 "/></g></g></g><g fill="#ff83a8" fill-opacity="1"><g transform="translate(112.752553, 45.630383)"><g><path d="M 11.304688 -6.0625 C 11.273438 -8.394531 10.347656 -9.59375 8.566406 -12.882812 C 9.628906 -14.082031 10.484375 -15.589844 10.484375 -16.957031 C 10.414062 -17.953125 9.832031 -18.738281 8.839844 -18.738281 C 7.433594 -18.738281 6.339844 -17.234375 6.339844 -15.453125 C 6.339844 -14.664062 6.542969 -13.910156 6.851562 -13.191406 C 6.441406 -12.777344 6.097656 -12.402344 5.6875 -11.921875 C 5.585938 -11.785156 5.515625 -11.613281 5.515625 -11.476562 C 5.515625 -11.273438 5.585938 -11.03125 5.753906 -10.894531 C 5.894531 -10.757812 6.097656 -10.722656 6.269531 -10.722656 C 6.476562 -10.722656 6.679688 -10.824219 6.816406 -10.996094 C 7.023438 -11.273438 7.261719 -11.546875 7.503906 -11.785156 C 9.320312 -8.597656 9.832031 -7.605469 9.867188 -6.097656 C 9.796875 -3.253906 7.8125 -1.4375 5.035156 -1.4375 C 3.050781 -1.4375 1.300781 -2.910156 1.300781 -5.003906 C 1.4375 -7.09375 2.671875 -8.667969 4.554688 -8.667969 C 5.449219 -8.667969 6.304688 -7.8125 6.371094 -6.644531 C 6.371094 -6.234375 6.679688 -5.925781 7.09375 -5.925781 C 7.503906 -5.925781 7.8125 -6.234375 7.8125 -6.644531 C 7.742188 -8.53125 6.304688 -10.105469 4.523438 -10.105469 C 1.78125 -10.105469 0.0703125 -8.085938 -0.136719 -5.003906 C -0.136719 -2.226562 2.191406 0 5.035156 0 C 8.496094 0 11.238281 -2.363281 11.304688 -6.0625 Z M 7.949219 -14.390625 C 7.84375 -14.765625 7.777344 -15.109375 7.777344 -15.484375 C 7.777344 -15.964844 7.878906 -16.582031 8.289062 -16.992188 C 8.632812 -17.335938 9.011719 -17.4375 9.011719 -16.957031 C 9.011719 -16.203125 8.496094 -15.144531 7.949219 -14.390625 Z M 7.949219 -14.390625 "/></g></g></g><g fill="#ff83a8" fill-opacity="1"><g transform="translate(125.940322, 45.630383)"><g/></g></g><g fill="#ff83a8" fill-opacity="1"><g transform="translate(136.21651, 45.630383)"><g><path d="M 25.625 -8.121094 C 25.523438 -8.152344 25.421875 -8.1875 25.316406 -8.1875 C 25.042969 -8.1875 24.804688 -8.015625 24.667969 -7.742188 C 22.953125 -3.699219 20.554688 -0.546875 16.617188 0.789062 L 18.054688 -3.359375 C 18.707031 -5.242188 19.324219 -6.886719 19.871094 -8.460938 L 22.40625 -15.210938 C 22.578125 -15.65625 22.304688 -16.171875 21.722656 -16.171875 C 21.414062 -16.171875 21.171875 -16.066406 21.035156 -15.65625 L 20.691406 -14.730469 C 19.425781 -11.410156 17.882812 -8.085938 16.035156 -5.449219 C 14.113281 -2.636719 11.886719 -0.683594 9.351562 -0.683594 C 7.058594 -0.789062 5.753906 -1.917969 5.753906 -4.695312 C 5.753906 -6.40625 6.40625 -9.183594 7.195312 -11.476562 C 7.777344 -11.410156 8.1875 -11.375 8.703125 -11.375 C 14.800781 -11.375 21 -14.699219 21.242188 -20.453125 C 21.242188 -23.398438 19.324219 -25.351562 16.410156 -25.351562 C 12.503906 -25.351562 8.839844 -20.453125 6.269531 -13.085938 C 3.425781 -13.703125 1.4375 -15.417969 1.4375 -18.464844 C 1.4375 -19.597656 1.714844 -20.726562 2.160156 -21.789062 C 2.5 -22.644531 2.980469 -23.46875 3.5625 -24.117188 C 3.699219 -24.257812 3.734375 -24.425781 3.734375 -24.597656 C 3.734375 -24.804688 3.664062 -25.011719 3.496094 -25.148438 C 3.359375 -25.25 3.1875 -25.316406 3.015625 -25.316406 C 2.808594 -25.316406 2.605469 -25.25 2.464844 -25.078125 C 1.816406 -24.289062 1.234375 -23.367188 0.820312 -22.335938 C 0.308594 -21.070312 0 -19.734375 0 -18.398438 C 0 -14.902344 2.261719 -12.539062 5.753906 -11.71875 C 5.035156 -9.523438 4.316406 -6.679688 4.316406 -4.695312 C 4.316406 -1.40625 5.925781 0.652344 9.351562 0.753906 C 12.195312 0.753906 14.628906 -1.097656 16.71875 -3.871094 L 14.902344 1.300781 C 13.976562 1.542969 13.054688 1.714844 12.195312 1.851562 C 8.085938 2.605469 6.40625 4.179688 6.40625 6.339844 C 6.40625 8.359375 7.742188 9.695312 9.796875 9.660156 C 12.265625 9.628906 14.390625 7.195312 16.035156 2.5 C 21.035156 1.027344 23.878906 -2.160156 26.003906 -7.160156 C 26.039062 -7.261719 26.070312 -7.367188 26.070312 -7.46875 C 26.070312 -7.742188 25.902344 -7.984375 25.625 -8.121094 Z M 7.707031 -12.847656 C 10.074219 -19.492188 13.15625 -23.914062 16.410156 -23.914062 C 18.433594 -23.914062 19.800781 -22.542969 19.800781 -20.453125 C 19.800781 -15.621094 12.984375 -12.195312 7.707031 -12.847656 Z M 14.355469 2.910156 C 13.222656 6.371094 11.648438 8.1875 9.796875 8.222656 C 8.632812 8.257812 7.84375 7.503906 7.84375 6.304688 C 7.984375 4.726562 9.320312 3.835938 12.46875 3.289062 C 13.085938 3.1875 13.703125 3.050781 14.355469 2.910156 Z M 14.355469 2.910156 "/></g></g></g><g fill="#ff83a8" fill-opacity="1"><g transform="translate(160.29704, 45.630383)"><g><path d="M 15.347656 -8.152344 C 15.246094 -8.1875 15.144531 -8.222656 15.039062 -8.222656 C 14.765625 -8.222656 14.527344 -8.050781 14.390625 -7.777344 L 14.355469 -7.675781 C 13.222656 -5.140625 11.578125 -1.4375 9.457031 -1.4375 C 8.734375 -1.4375 8.429688 -1.851562 8.429688 -2.878906 C 8.429688 -4.386719 9.558594 -7.367188 10.792969 -10.824219 L 12.503906 -15.417969 C 12.675781 -15.828125 12.402344 -16.375 11.855469 -16.375 C 11.546875 -16.375 11.273438 -16.203125 11.167969 -15.929688 C 10.996094 -15.484375 10.792969 -14.972656 10.585938 -14.390625 C 9.96875 -15.621094 8.90625 -16.203125 7.46875 -16.203125 C 3.359375 -16.203125 -0.101562 -8.1875 -0.101562 -3.699219 C -0.101562 -1.644531 0.789062 0 2.707031 0 C 4.179688 0 5.617188 -0.960938 6.988281 -2.878906 C 6.988281 -1.199219 7.8125 0 9.457031 0 C 12.539062 0 14.390625 -4.214844 15.691406 -7.09375 L 15.726562 -7.195312 C 15.757812 -7.296875 15.792969 -7.398438 15.792969 -7.503906 C 15.792969 -7.777344 15.621094 -8.015625 15.347656 -8.152344 Z M 2.671875 -1.4375 C 1.644531 -1.4375 1.335938 -2.433594 1.335938 -3.941406 C 1.40625 -7.332031 4.316406 -14.699219 7.46875 -14.765625 C 8.703125 -14.765625 9.59375 -13.839844 9.660156 -12.265625 L 8.839844 -10.074219 C 7.46875 -6.578125 5.449219 -1.4375 2.671875 -1.4375 Z M 2.671875 -1.4375 "/></g></g></g><g fill="#ff83a8" fill-opacity="1"><g transform="translate(174.101382, 45.630383)"><g><path d="M 23.125 -7.503906 C 23.125 -7.878906 22.75 -8.222656 22.40625 -8.222656 C 22.132812 -8.222656 21.824219 -8.050781 21.722656 -7.777344 C 19.871094 -3.460938 18.5 -1.4375 16.820312 -1.4375 C 16.101562 -1.4375 15.792969 -1.882812 15.792969 -2.878906 C 15.792969 -5.824219 18.433594 -9.765625 18.433594 -13.054688 C 18.433594 -14.867188 17.679688 -16.273438 15.210938 -16.273438 C 13.601562 -16.273438 11.855469 -14.699219 10.859375 -13.121094 C 10.859375 -14.9375 9.765625 -16.273438 7.707031 -16.273438 C 6.542969 -16.273438 5.449219 -15.484375 4.453125 -14.320312 C 4.554688 -14.664062 4.660156 -14.9375 4.796875 -15.246094 C 4.96875 -15.691406 4.625 -16.203125 4.109375 -16.203125 C 3.804688 -16.203125 3.527344 -16.035156 3.425781 -15.726562 C 1.679688 -10.792969 -0.101562 -5.859375 -1.851562 -0.925781 C -1.988281 -0.546875 -1.78125 -0.136719 -1.40625 0 C -1.027344 0.101562 -0.617188 -0.0703125 -0.480469 -0.480469 L 1.851562 -7.09375 C 2.054688 -7.640625 4.109375 -11.410156 4.726562 -12.332031 C 5.722656 -13.738281 6.75 -14.835938 7.707031 -14.835938 C 8.941406 -14.835938 9.421875 -14.183594 9.421875 -12.917969 C 9.421875 -11.71875 8.90625 -10.175781 8.1875 -8.085938 C 8.152344 -8.015625 5.894531 -1.300781 5.859375 -1.199219 C 5.6875 -0.753906 6.03125 -0.238281 6.542969 -0.238281 C 6.851562 -0.238281 7.125 -0.410156 7.230469 -0.71875 C 7.195312 -0.652344 9.488281 -7.367188 9.558594 -7.570312 C 10.550781 -10.347656 13.222656 -14.835938 15.210938 -14.835938 C 16.582031 -14.835938 16.992188 -14.046875 16.992188 -13.054688 C 16.992188 -10.242188 14.320312 -5.996094 14.320312 -2.878906 C 14.320312 -1.199219 15.144531 0 16.820312 0 C 19.871094 0 21.753906 -4.214844 23.023438 -7.09375 C 23.089844 -7.332031 23.125 -7.398438 23.125 -7.503906 Z M 23.125 -7.503906 "/></g></g></g><g fill="#ff83a8" fill-opacity="1"><g transform="translate(195.236066, 45.630383)"><g><path d="M 12.402344 -8.152344 C 12.023438 -8.289062 11.613281 -8.121094 11.441406 -7.777344 C 9.523438 -3.359375 7.332031 -1.371094 4.523438 -1.4375 C 2.464844 -1.507812 1.371094 -2.707031 1.4375 -4.660156 C 1.472656 -5.378906 1.574219 -6.03125 1.816406 -6.921875 C 5.617188 -7.84375 10.722656 -10.039062 10.722656 -13.667969 C 10.722656 -15.3125 9.523438 -16.203125 7.8125 -16.203125 C 3.769531 -16.203125 0.207031 -9.078125 0 -4.695312 C -0.0703125 -1.882812 1.644531 0 4.488281 0 C 7.949219 0 10.550781 -2.261719 12.777344 -7.195312 C 12.8125 -7.296875 12.847656 -7.367188 12.847656 -7.46875 C 12.847656 -7.742188 12.675781 -8.015625 12.402344 -8.152344 Z M 2.363281 -8.566406 C 3.460938 -11.203125 5.449219 -14.765625 7.8125 -14.765625 C 8.566406 -14.765625 9.285156 -14.59375 9.285156 -13.667969 C 9.285156 -11.132812 5.207031 -9.457031 2.363281 -8.566406 Z M 2.363281 -8.566406 "/></g></g></g><g fill="#ff83a8" fill-opacity="1"><g transform="translate(206.094586, 45.630383)"><g/></g></g><g fill="#ff83a8" fill-opacity="1"><g transform="translate(216.370785, 45.630383)"><g><path d="M 15.3125 -7.230469 C 15.519531 -7.707031 15.144531 -8.222656 14.628906 -8.222656 C 14.355469 -8.222656 14.082031 -8.050781 13.976562 -7.777344 C 12.777344 -4.933594 11.578125 -3.632812 10.140625 -3.632812 C 9.351562 -3.632812 8.769531 -3.871094 8.394531 -4.351562 C 9.96875 -7.023438 11.066406 -10.378906 11.066406 -12.539062 C 11.066406 -14.59375 9.902344 -16.136719 7.640625 -16.203125 C 5.925781 -16.203125 4.25 -15.007812 2.808594 -12.609375 C 1.679688 -10.757812 -0.101562 -7.433594 -0.101562 -3.460938 C -0.101562 -1.472656 0.652344 0 2.878906 0 C 4.523438 0 6.269531 -1.40625 7.539062 -3.117188 C 8.289062 -2.5 9.183594 -2.191406 10.140625 -2.191406 C 12.195312 -2.191406 13.808594 -3.769531 15.3125 -7.230469 Z M 7.367188 -8.222656 C 7.023438 -8.222656 6.714844 -8.015625 6.644531 -7.675781 C 6.40625 -6.816406 6.339844 -5.308594 6.714844 -4.417969 C 5.585938 -2.808594 4.144531 -1.4375 2.878906 -1.4375 C 1.78125 -1.4375 1.371094 -2.296875 1.371094 -3.527344 C 1.371094 -7.058594 3.1875 -10.378906 4.078125 -11.855469 C 5.070312 -13.566406 6.304688 -14.765625 7.605469 -14.765625 C 8.769531 -14.765625 9.628906 -14.011719 9.628906 -12.574219 C 9.628906 -10.996094 8.976562 -8.632812 7.914062 -6.507812 C 7.949219 -6.75 7.949219 -7.023438 8.050781 -7.296875 C 8.1875 -7.777344 7.84375 -8.222656 7.367188 -8.222656 Z M 7.367188 -8.222656 "/></g></g></g><g fill="#ff83a8" fill-opacity="1"><g transform="translate(229.764079, 45.630383)"><g><path d="M 13.394531 -24.90625 C 12.917969 -25.867188 12.023438 -26.378906 10.929688 -26.378906 C 8.152344 -26.378906 6.199219 -22.886719 4.863281 -19.355469 L 3.664062 -16.203125 L 0.890625 -16.203125 C 0.480469 -16.203125 0.171875 -15.863281 0.171875 -15.484375 C 0.171875 -15.074219 0.480469 -14.765625 0.890625 -14.765625 L 3.117188 -14.765625 C 1.027344 -9.25 -0.0703125 -5.6875 -2.605469 1.300781 C -3.527344 1.542969 -4.453125 1.714844 -5.308594 1.851562 C -9.421875 2.605469 -11.101562 4.179688 -11.101562 6.339844 C -11.101562 8.359375 -9.765625 9.695312 -7.707031 9.660156 C -5.242188 9.628906 -3.117188 7.195312 -1.472656 2.5 C 3.527344 1.027344 6.371094 -2.160156 8.496094 -7.160156 C 8.53125 -7.261719 8.566406 -7.367188 8.566406 -7.46875 C 8.566406 -7.742188 8.394531 -7.984375 8.121094 -8.121094 C 8.015625 -8.152344 7.914062 -8.1875 7.8125 -8.1875 C 7.539062 -8.1875 7.296875 -8.015625 7.160156 -7.742188 C 5.449219 -3.699219 3.050781 -0.546875 -0.890625 0.789062 C 2.570312 -9.078125 3.632812 -11.992188 4.660156 -14.765625 L 7.398438 -14.765625 C 7.777344 -14.765625 8.121094 -15.074219 8.121094 -15.484375 C 8.121094 -15.863281 7.777344 -16.203125 7.398438 -16.203125 L 5.207031 -16.203125 C 5.515625 -17.0625 5.894531 -17.988281 6.234375 -18.808594 C 7.332031 -21.722656 9.011719 -25.011719 10.996094 -24.90625 C 11.375 -24.90625 11.820312 -24.804688 12.128906 -24.289062 C 12.265625 -24.015625 12.503906 -23.878906 12.777344 -23.878906 C 12.882812 -23.878906 12.984375 -23.914062 13.085938 -23.949219 C 13.328125 -24.085938 13.5 -24.324219 13.5 -24.597656 C 13.5 -24.703125 13.464844 -24.804688 13.394531 -24.90625 Z M -3.152344 2.910156 C -4.28125 6.371094 -5.859375 8.1875 -7.707031 8.222656 C -8.875 8.257812 -9.660156 7.503906 -9.660156 6.304688 C -9.523438 4.726562 -8.1875 3.835938 -5.035156 3.289062 C -4.417969 3.1875 -3.804688 3.050781 -3.152344 2.910156 Z M -3.152344 2.910156 "/></g></g></g><g fill="#ff83a8" fill-opacity="1"><g transform="translate(236.340838, 45.630383)"><g/></g></g><g fill="#ff83a8" fill-opacity="1"><g transform="translate(246.617013, 45.630383)"><g><path d="M 14.835938 -22.441406 L 11.921875 -21.996094 C 6.785156 -21.207031 1.234375 -20.351562 0.582031 -15.589844 C 0.546875 -15.417969 0.546875 -15.210938 0.546875 -15.039062 C 0.515625 -13.945312 0.789062 -12.882812 1.40625 -12.09375 C 2.019531 -11.238281 2.945312 -10.65625 4.144531 -10.484375 C 4.28125 -10.449219 4.453125 -10.449219 4.625 -10.449219 C 5.035156 -10.449219 5.378906 -10.757812 5.378906 -11.132812 C 5.414062 -11.546875 5.105469 -11.886719 4.695312 -11.886719 L 4.351562 -11.921875 C 3.5625 -12.023438 2.980469 -12.402344 2.570312 -12.949219 C 2.160156 -13.5 1.953125 -14.21875 1.988281 -14.972656 C 1.988281 -15.109375 1.988281 -15.246094 2.019531 -15.382812 C 2.535156 -19.082031 7.570312 -19.871094 12.164062 -20.589844 C 12.847656 -20.691406 13.566406 -20.796875 14.253906 -20.933594 C 13.53125 -18.980469 12.847656 -16.789062 12.265625 -14.867188 C 10.964844 -10.65625 10.449219 -9.148438 9.796875 -7.46875 C 9.386719 -6.476562 8.941406 -5.515625 8.429688 -4.660156 C 6.851562 -5.996094 5.242188 -6.886719 3.769531 -6.886719 C 1.78125 -6.886719 0.136719 -5.515625 0 -3.117188 C 0 -1.097656 1.199219 0 3.5625 0.171875 C 5.378906 0.171875 7.195312 -0.71875 8.394531 -2.125 C 8.496094 -2.226562 8.597656 -2.363281 8.703125 -2.5 C 9.558594 -1.746094 10.414062 -0.855469 11.304688 0 C 14.285156 2.980469 17.679688 6.507812 21.308594 6.507812 C 23.367188 6.507812 25.625 5.652344 26.484375 3.734375 C 26.515625 3.632812 26.550781 3.527344 26.550781 3.460938 C 26.550781 3.1875 26.3125 2.707031 25.832031 2.707031 C 25.558594 2.707031 25.285156 2.878906 25.179688 3.152344 C 24.632812 4.351562 23.058594 5.035156 21.34375 5.035156 C 18.226562 5.035156 15.175781 1.816406 12.332031 -1.027344 C 11.375 -1.953125 10.449219 -2.878906 9.523438 -3.734375 C 10.140625 -4.695312 10.65625 -5.753906 11.132812 -6.921875 C 11.785156 -8.53125 12.539062 -10.824219 13.667969 -14.421875 C 14.320312 -16.648438 15.109375 -19.1875 15.929688 -21.242188 C 18.363281 -21.890625 20.832031 -23.195312 20.832031 -24.804688 C 20.832031 -25.902344 20.007812 -26.652344 18.808594 -26.652344 C 17.0625 -26.652344 15.589844 -24.425781 14.835938 -22.441406 Z M 16.617188 -22.953125 C 17.164062 -24.117188 18.054688 -25.285156 18.808594 -25.285156 C 19.082031 -25.285156 19.289062 -25.078125 19.289062 -24.804688 C 19.289062 -24.257812 18.054688 -23.261719 16.617188 -22.953125 Z M 7.296875 -3.050781 C 6.371094 -1.988281 4.933594 -1.269531 3.5625 -1.269531 C 2.398438 -1.269531 1.4375 -1.78125 1.4375 -3.117188 C 1.507812 -4.554688 2.535156 -5.449219 3.734375 -5.449219 C 4.898438 -5.449219 6.199219 -4.625 7.640625 -3.460938 C 7.503906 -3.324219 7.398438 -3.1875 7.296875 -3.050781 Z M 7.296875 -3.050781 "/></g></g></g><g fill="#ff83a8" fill-opacity="1"><g transform="translate(264.018028, 45.630383)"><g><path d="M 5.585938 -17.953125 C 6.234375 -17.953125 6.75 -18.464844 6.75 -19.117188 C 6.75 -19.769531 6.234375 -20.28125 5.585938 -20.28125 C 4.933594 -20.28125 4.386719 -19.769531 4.386719 -19.117188 C 4.386719 -18.464844 4.933594 -17.953125 5.585938 -17.953125 Z M 7.84375 -8.152344 C 7.742188 -8.1875 7.675781 -8.222656 7.570312 -8.222656 C 7.296875 -8.222656 7.023438 -8.050781 6.886719 -7.777344 C 5.617188 -4.96875 4.042969 -1.4375 1.917969 -1.4375 C 1.199219 -1.4375 0.890625 -1.882812 0.890625 -2.878906 C 0.890625 -4.351562 1.507812 -5.925781 4.832031 -15.28125 C 5.035156 -15.863281 4.589844 -16.203125 4.144531 -16.203125 C 3.871094 -16.203125 3.597656 -16.035156 3.496094 -15.726562 C 1.988281 -11.820312 -0.445312 -5.550781 -0.546875 -2.878906 C -0.617188 -1.300781 0.273438 0 1.917969 0 C 4.796875 0 6.578125 -3.496094 8.222656 -7.195312 C 8.257812 -7.296875 8.289062 -7.398438 8.289062 -7.503906 C 8.289062 -7.777344 8.121094 -8.050781 7.84375 -8.152344 Z M 7.84375 -8.152344 "/></g></g></g><g fill="#ff83a8" fill-opacity="1"><g transform="translate(270.320747, 45.630383)"><g><path d="M 13.394531 -24.90625 C 12.917969 -25.867188 12.023438 -26.378906 10.929688 -26.378906 C 8.152344 -26.378906 6.199219 -22.886719 4.863281 -19.355469 L 3.664062 -16.203125 L 0.890625 -16.203125 C 0.480469 -16.203125 0.171875 -15.863281 0.171875 -15.484375 C 0.171875 -15.074219 0.480469 -14.765625 0.890625 -14.765625 L 3.117188 -14.765625 C 1.027344 -9.25 -0.0703125 -5.6875 -2.605469 1.300781 C -3.527344 1.542969 -4.453125 1.714844 -5.308594 1.851562 C -9.421875 2.605469 -11.101562 4.179688 -11.101562 6.339844 C -11.101562 8.359375 -9.765625 9.695312 -7.707031 9.660156 C -5.242188 9.628906 -3.117188 7.195312 -1.472656 2.5 C 3.527344 1.027344 6.371094 -2.160156 8.496094 -7.160156 C 8.53125 -7.261719 8.566406 -7.367188 8.566406 -7.46875 C 8.566406 -7.742188 8.394531 -7.984375 8.121094 -8.121094 C 8.015625 -8.152344 7.914062 -8.1875 7.8125 -8.1875 C 7.539062 -8.1875 7.296875 -8.015625 7.160156 -7.742188 C 5.449219 -3.699219 3.050781 -0.546875 -0.890625 0.789062 C 2.570312 -9.078125 3.632812 -11.992188 4.660156 -14.765625 L 7.398438 -14.765625 C 7.777344 -14.765625 8.121094 -15.074219 8.121094 -15.484375 C 8.121094 -15.863281 7.777344 -16.203125 7.398438 -16.203125 L 5.207031 -16.203125 C 5.515625 -17.0625 5.894531 -17.988281 6.234375 -18.808594 C 7.332031 -21.722656 9.011719 -25.011719 10.996094 -24.90625 C 11.375 -24.90625 11.820312 -24.804688 12.128906 -24.289062 C 12.265625 -24.015625 12.503906 -23.878906 12.777344 -23.878906 C 12.882812 -23.878906 12.984375 -23.914062 13.085938 -23.949219 C 13.328125 -24.085938 13.5 -24.324219 13.5 -24.597656 C 13.5 -24.703125 13.464844 -24.804688 13.394531 -24.90625 Z M -3.152344 2.910156 C -4.28125 6.371094 -5.859375 8.1875 -7.707031 8.222656 C -8.875 8.257812 -9.660156 7.503906 -9.660156 6.304688 C -9.523438 4.726562 -8.1875 3.835938 -5.035156 3.289062 C -4.417969 3.1875 -3.804688 3.050781 -3.152344 2.910156 Z M -3.152344 2.910156 "/></g></g></g><g fill="#ff83a8" fill-opacity="1"><g transform="translate(276.897505, 45.630383)"><g><path d="M 12.402344 -8.152344 C 12.023438 -8.289062 11.613281 -8.121094 11.441406 -7.777344 C 9.523438 -3.359375 7.332031 -1.371094 4.523438 -1.4375 C 2.464844 -1.507812 1.371094 -2.707031 1.4375 -4.660156 C 1.472656 -5.378906 1.574219 -6.03125 1.816406 -6.921875 C 5.617188 -7.84375 10.722656 -10.039062 10.722656 -13.667969 C 10.722656 -15.3125 9.523438 -16.203125 7.8125 -16.203125 C 3.769531 -16.203125 0.207031 -9.078125 0 -4.695312 C -0.0703125 -1.882812 1.644531 0 4.488281 0 C 7.949219 0 10.550781 -2.261719 12.777344 -7.195312 C 12.8125 -7.296875 12.847656 -7.367188 12.847656 -7.46875 C 12.847656 -7.742188 12.675781 -8.015625 12.402344 -8.152344 Z M 2.363281 -8.566406 C 3.460938 -11.203125 5.449219 -14.765625 7.8125 -14.765625 C 8.566406 -14.765625 9.285156 -14.59375 9.285156 -13.667969 C 9.285156 -11.132812 5.207031 -9.457031 2.363281 -8.566406 Z M 2.363281 -8.566406 "/></g></g></g></svg>