<svg xmlns="http://www.w3.org/2000/svg" xmlns:xlink="http://www.w3.org/1999/xlink" width="400" zoomAndPan="magnify" viewBox="0 0 300 74.999997" height="100" preserveAspectRatio="xMidYMid meet" version="1.0"><path stroke-linecap="butt" transform="matrix(0.75, 0, 0, 0.75, 0.000006, 14.981285)" fill="none" stroke-linejoin="miter" d="M 85.880207 24.155163 L 90.838541 24.155163 L 90.838541 34.707248 C 90.838541 35.571831 90.088541 36.243706 89.223958 36.243706 L 82.145832 36.243706 C 81.343749 36.243706 80.677082 35.571831 80.677082 34.774956 L 80.677082 6.62912 C 80.677082 5.764537 81.343749 5.030162 82.208332 5.030162 L 89.161458 5.030162 C 90.088541 5.030162 90.838541 5.764537 90.838541 6.712454 L 90.838541 9.045787 L 100.453125 9.045787 L 100.453125 6.712454 C 100.453125 0.431203 95.375 -4.594839 89.161458 -4.594839 L 82.208332 -4.594839 C 75.99479 -4.594839 70.984373 0.431203 70.984373 6.62912 L 70.984373 34.774956 C 70.984373 40.925998 75.99479 45.936415 82.145832 45.936415 L 89.223958 45.936415 C 95.442708 45.936415 100.453125 40.85829 100.453125 34.707248 L 100.515625 14.462454 L 85.880207 14.462454 Z M 103.864584 45.936415 L 130.656253 45.936415 L 130.656253 36.243706 L 113.557293 36.243706 L 113.557293 -4.662547 L 103.864584 -4.662547 Z M 152.244796 -4.449006 L 145.229171 -4.449006 C 139.078128 -4.449006 134.005211 0.561411 134.005211 6.774954 L 134.005211 34.837456 C 134.005211 41.056206 139.078128 46.066623 145.229171 46.066623 L 152.244796 46.066623 C 158.458338 46.066623 163.468755 41.056206 163.468755 34.837456 L 163.468755 6.774954 C 163.468755 0.561411 158.458338 -4.449006 152.244796 -4.449006 Z M 153.85938 34.837456 C 153.85938 35.707248 153.10938 36.373914 152.244796 36.373914 L 145.229171 36.373914 C 144.364587 36.373914 143.692712 35.707248 143.692712 34.837456 L 143.692712 6.774954 C 143.692712 5.894745 144.364587 5.16037 145.229171 5.16037 L 152.244796 5.16037 C 153.10938 5.16037 153.85938 5.894745 153.85938 6.774954 Z M 185.057299 -4.449006 L 178.041673 -4.449006 C 171.890631 -4.449006 166.817714 0.561411 166.817714 6.774954 L 166.817714 34.837456 C 166.817714 41.056206 171.890631 46.066623 178.041673 46.066623 L 185.057299 46.066623 C 191.270841 46.066623 196.281258 41.056206 196.281258 34.837456 L 196.281258 6.774954 C 196.281258 0.561411 191.270841 -4.449006 185.057299 -4.449006 Z M 186.671882 34.837456 C 186.671882 35.707248 185.921882 36.373914 185.057299 36.373914 L 178.041673 36.373914 C 177.17709 36.373914 176.505215 35.707248 176.505215 34.837456 L 176.505215 6.774954 C 176.505215 5.894745 177.17709 5.16037 178.041673 5.16037 L 185.057299 5.16037 C 185.921882 5.16037 186.671882 5.894745 186.671882 6.774954 Z M 222.354177 -4.662547 L 216.140635 8.243704 L 209.859384 -4.662547 L 199.630217 -4.662547 L 199.630217 45.936415 L 209.317717 45.936415 L 209.317717 16.254121 L 216.203135 30.368706 L 222.880219 16.535371 L 222.880219 45.936415 L 232.567719 45.936415 L 232.567719 -4.662547 Z M 254.890638 -4.532339 L 250.354179 7.707245 L 246.276054 -4.532339 L 236.177095 -4.532339 L 239.260428 5.09787 L 244.937512 22.144747 L 235.916678 46.066623 L 246.276054 46.066623 L 265.250014 -4.532339 Z M 295.468766 30.222872 C 295.468766 25.556205 293.395849 21.264538 290.052099 18.394746 C 291.843766 15.993704 292.921891 12.993704 292.921891 9.780162 C 292.921891 1.832245 286.510432 -4.594839 278.54689 -4.594839 L 278.286473 -4.594839 L 278.286473 -4.662547 L 268.593764 -4.662547 L 268.593764 45.936415 L 281.093765 45.936415 C 289.104182 45.26454 295.468766 38.446831 295.468766 30.222872 Z M 278.354181 5.09787 L 278.54689 5.09787 C 281.156265 5.09787 283.29689 7.165579 283.29689 9.780162 C 283.29689 12.389537 281.156265 14.462454 278.54689 14.462454 L 278.354181 14.462454 Z M 279.687515 36.373914 L 278.354181 36.373914 L 278.354181 24.155163 L 279.687515 24.155163 C 283.036473 24.155163 285.776057 26.894747 285.776057 30.222872 C 285.776057 33.634331 283.036473 36.373914 279.687515 36.373914 Z M 325.671894 30.222872 C 325.671894 25.556205 323.598977 21.264538 320.255226 18.394746 C 322.052102 15.993704 323.130227 12.993704 323.130227 9.780162 C 323.130227 1.832245 316.71356 -4.594839 308.755226 -4.594839 L 308.494809 -4.594839 L 308.494809 -4.662547 L 298.8021 -4.662547 L 298.8021 45.936415 L 311.296892 45.936415 C 319.312518 45.26454 325.671894 38.446831 325.671894 30.222872 Z M 308.557309 5.09787 L 308.755226 5.09787 C 311.364601 5.09787 313.500018 7.165579 313.500018 9.780162 C 313.500018 12.389537 311.364601 14.462454 308.755226 14.462454 L 308.557309 14.462454 Z M 309.895851 36.373914 L 308.557309 36.373914 L 308.557309 24.155163 L 309.895851 24.155163 C 313.239601 24.155163 315.979184 26.894747 315.979184 30.222872 C 315.979184 33.634331 313.239601 36.373914 309.895851 36.373914 Z M 309.895851 36.373914 " stroke="#e5ccfd" stroke-width="1.921449" stroke-opacity="1" stroke-miterlimit="4"/></svg>