<svg xmlns="http://www.w3.org/2000/svg" xmlns:xlink="http://www.w3.org/1999/xlink" width="400" zoomAndPan="magnify" viewBox="0 0 300 74.999997" height="100" preserveAspectRatio="xMidYMid meet" version="1.0"><path stroke-linecap="butt" transform="matrix(0.3125, 0, 0, 0.3125, 0.000006, 12.499998)" fill="none" stroke-linejoin="miter" d="M 270.63752 34.387512 C 270.63752 33.662512 270.85002 33.087512 271.26252 32.675012 C 271.71252 32.225012 272.30002 32.012512 273.025021 32.012512 L 298.137524 32.012512 C 298.900024 32.012512 299.487524 32.225012 299.900024 32.675012 C 300.337525 33.087512 300.562525 33.662512 300.562525 34.387512 L 300.562525 141.612528 C 300.562525 142.350028 300.337525 142.937528 299.900024 143.375028 C 299.487524 143.787528 298.900024 144.000028 298.137524 144.000028 L 271.77502 144.000028 C 270.36252 144.000028 269.45002 143.412528 269.03752 142.237528 L 246.812517 90.087521 C 246.712517 89.650021 246.487517 89.425021 246.150017 89.425021 C 245.837517 89.425021 245.675017 89.700021 245.675017 90.250021 L 245.987517 141.612528 C 245.987517 142.350028 245.775017 142.937528 245.325017 143.375028 C 244.912516 143.787528 244.337516 144.000028 243.612516 144.000028 L 218.487513 144.000028 C 217.737513 144.000028 217.137512 143.787528 216.700012 143.375028 C 216.275012 142.937528 216.075012 142.350028 216.075012 141.612528 L 216.075012 34.387512 C 216.075012 33.662512 216.275012 33.087512 216.700012 32.675012 C 217.137512 32.225012 217.737513 32.012512 218.487513 32.012512 L 244.700016 32.012512 C 246.112517 32.012512 247.025017 32.587512 247.437517 33.762512 L 269.66252 85.91252 C 269.76252 86.36252 269.97502 86.55002 270.28752 86.50002 C 270.62502 86.42502 270.80002 86.12502 270.80002 85.60002 Z M 349.662532 145.287529 C 341.875031 145.287529 335.02503 143.737528 329.112529 140.637528 C 323.200028 137.537528 318.625027 133.162527 315.362527 127.512526 C 312.112526 121.862525 310.487526 115.300024 310.487526 107.825023 L 310.487526 34.387512 C 310.487526 33.662512 310.687526 33.087512 311.112526 32.675012 C 311.550026 32.225012 312.137526 32.012512 312.862526 32.012512 L 338.13753 32.012512 C 338.88753 32.012512 339.47503 32.225012 339.90003 32.675012 C 340.33753 33.087512 340.56253 33.662512 340.56253 34.387512 L 340.56253 109.275023 C 340.56253 112.375024 341.375031 114.862524 343.025031 116.737524 C 344.687531 118.587525 346.900031 119.512525 349.662532 119.512525 C 352.337532 119.512525 354.525032 118.587525 356.225033 116.737524 C 357.937533 114.862524 358.800033 112.375024 358.800033 109.275023 L 358.800033 34.387512 C 358.800033 33.662512 359.012533 33.087512 359.425033 32.675012 C 359.875033 32.225012 360.450033 32.012512 361.187533 32.012512 L 386.462537 32.012512 C 387.212537 32.012512 387.800037 32.225012 388.212537 32.675012 C 388.662537 33.087512 388.875037 33.662512 388.875037 34.387512 L 388.875037 107.825023 C 388.875037 115.300024 387.250037 121.862525 384.000037 127.512526 C 380.737536 133.162527 376.150036 137.537528 370.212535 140.637528 C 364.300034 143.737528 357.450033 145.287529 349.662532 145.287529 Z M 460.862548 33.612512 C 461.412548 32.537512 462.375048 32.012512 463.750048 32.012512 L 488.712552 32.012512 C 489.462552 32.012512 490.050052 32.225012 490.475052 32.675012 C 490.912552 33.087512 491.137552 33.662512 491.137552 34.387512 L 491.137552 141.612528 C 491.137552 142.350028 490.912552 142.937528 490.475052 143.375028 C 490.050052 143.787528 489.462552 144.000028 488.712552 144.000028 L 463.437548 144.000028 C 462.687548 144.000028 462.100048 143.787528 461.675048 143.375028 C 461.262548 142.937528 461.050048 142.350028 461.050048 141.612528 L 461.050048 80.175019 C 461.050048 79.725019 460.912548 79.450019 460.625048 79.350019 C 460.362548 79.250019 460.137548 79.412519 459.925048 79.862519 L 449.687546 96.812522 C 449.037546 97.875022 448.075046 98.412522 446.800046 98.412522 L 442.612545 98.412522 C 441.337545 98.412522 440.387545 97.875022 439.762545 96.812522 L 429.537543 79.662519 C 429.300043 79.250019 429.050043 79.087519 428.787543 79.200019 C 428.525043 79.300019 428.400043 79.575019 428.400043 80.012519 L 428.400043 141.612528 C 428.400043 142.350028 428.175043 142.937528 427.737543 143.375028 C 427.325043 143.787528 426.737543 144.000028 425.975043 144.000028 L 400.700039 144.000028 C 399.975039 144.000028 399.387539 143.787528 398.950039 143.375028 C 398.525039 142.937528 398.325039 142.350028 398.325039 141.612528 L 398.325039 34.387512 C 398.325039 33.662512 398.525039 33.087512 398.950039 32.675012 C 399.387539 32.225012 399.975039 32.012512 400.700039 32.012512 L 425.662543 32.012512 C 426.937543 32.012512 427.900043 32.537512 428.550043 33.612512 L 444.225046 60.175016 C 444.450046 60.487516 444.700046 60.637516 444.962546 60.637516 C 445.225046 60.637516 445.400046 60.487516 445.512546 60.175016 Z M 544.55006 32.012512 C 551.612561 32.012512 557.787562 33.525012 563.100063 36.575013 C 568.437564 39.600013 572.600064 43.862514 575.562565 49.350015 C 578.562565 54.850015 580.062565 61.175016 580.062565 68.337517 C 580.062565 75.362518 578.587565 81.525019 575.637565 86.81252 C 572.725064 92.075021 568.575064 96.175022 563.187563 99.112522 C 557.812562 102.062522 551.662561 103.525023 544.70006 103.525023 L 531.775058 103.525023 C 531.125058 103.525023 530.800058 103.837523 530.800058 104.462523 L 530.800058 141.612528 C 530.800058 142.350028 530.575058 142.937528 530.137558 143.375028 C 529.725058 143.787528 529.137558 144.000028 528.375058 144.000028 L 503.100054 144.000028 C 502.375054 144.000028 501.787554 143.787528 501.350054 143.375028 C 500.925054 142.937528 500.725054 142.350028 500.725054 141.612528 L 500.725054 34.387512 C 500.725054 33.662512 500.925054 33.087512 501.350054 32.675012 C 501.787554 32.225012 502.375054 32.012512 503.100054 32.012512 Z M 539.437559 80.012519 C 542.63756 80.012519 545.18756 79.025019 547.08756 77.050019 C 549.012561 75.062518 549.975061 72.375018 549.975061 68.962518 C 549.975061 65.450017 549.012561 62.700017 547.08756 60.712516 C 545.18756 58.737516 542.63756 57.750016 539.437559 57.750016 L 531.775058 57.750016 C 531.125058 57.750016 530.800058 58.075016 530.800058 58.725016 L 530.800058 79.037519 C 530.800058 79.687519 531.125058 80.012519 531.775058 80.012519 Z M 626.462572 145.287529 C 618.675071 145.287529 611.82507 143.737528 605.912569 140.637528 C 600.000068 137.537528 595.425068 133.162527 592.162567 127.512526 C 588.912567 121.862525 587.287566 115.300024 587.287566 107.825023 L 587.287566 34.387512 C 587.287566 33.662512 587.487566 33.087512 587.912566 32.675012 C 588.350067 32.225012 588.937567 32.012512 589.662567 32.012512 L 614.93757 32.012512 C 615.68757 32.012512 616.275071 32.225012 616.700071 32.675012 C 617.137571 33.087512 617.362571 33.662512 617.362571 34.387512 L 617.362571 109.275023 C 617.362571 112.375024 618.175071 114.862524 619.825071 116.737524 C 621.487571 118.587525 623.700072 119.512525 626.462572 119.512525 C 629.137572 119.512525 631.325073 118.587525 633.025073 116.737524 C 634.737573 114.862524 635.600073 112.375024 635.600073 109.275023 L 635.600073 34.387512 C 635.600073 33.662512 635.812573 33.087512 636.225073 32.675012 C 636.675074 32.225012 637.250074 32.012512 637.987574 32.012512 L 663.262577 32.012512 C 664.012578 32.012512 664.600078 32.225012 665.012578 32.675012 C 665.462578 33.087512 665.675078 33.662512 665.675078 34.387512 L 665.675078 107.825023 C 665.675078 115.300024 664.050078 121.862525 660.800077 127.512526 C 657.537577 133.162527 652.950076 137.537528 647.012575 140.637528 C 641.100074 143.737528 634.250073 145.287529 626.462572 145.287529 Z M 675.587579 144.000028 C 674.837579 144.000028 674.250079 143.787528 673.837579 143.375028 C 673.412579 142.937528 673.212579 142.350028 673.212579 141.612528 L 673.212579 119.037525 C 673.212579 118.075025 673.525079 117.112525 674.150079 116.150024 L 712.700085 58.887516 C 712.937585 58.575016 712.987585 58.312516 712.850085 58.100016 C 712.750085 57.862516 712.487585 57.750016 712.075085 57.750016 L 675.587579 57.750016 C 674.837579 57.750016 674.250079 57.537516 673.837579 57.125016 C 673.412579 56.687516 673.212579 56.100016 673.212579 55.362516 L 673.212579 34.387512 C 673.212579 33.662512 673.412579 33.087512 673.837579 32.675012 C 674.250079 32.225012 674.837579 32.012512 675.587579 32.012512 L 743.600089 32.012512 C 744.350089 32.012512 744.937589 32.225012 745.350089 32.675012 C 745.775089 33.087512 745.975089 33.662512 745.975089 34.387512 L 745.975089 56.812516 C 745.975089 57.775016 745.662589 58.725016 745.037589 59.662516 L 706.175084 117.125025 C 705.937584 117.437525 705.875084 117.712525 705.975084 117.950025 C 706.112584 118.150025 706.387584 118.262525 706.800084 118.262525 L 743.600089 118.262525 C 744.350089 118.262525 744.937589 118.462525 745.350089 118.887525 C 745.775089 119.300025 745.975089 119.887525 745.975089 120.637525 L 745.975089 141.612528 C 745.975089 142.350028 745.775089 142.937528 745.350089 143.375028 C 744.937589 143.787528 744.350089 144.000028 743.600089 144.000028 Z M 675.587579 144.000028 " stroke="#ff9e5e" stroke-width="3.8" stroke-opacity="1" stroke-miterlimit="4"/></svg>